<svg version="1.2" xmlns="http://www.w3.org/2000/svg" viewBox="0 0 1000 1000" width="1000" height="1000">
	<title>4115336-ai</title>
	<style>
		.s0 { fill: #ebebeb } 
		.s1 { fill: #f0f0f0 } 
		.s2 { fill: #e0e0e0 } 
		.s3 { fill: none;stroke: #e6e6e6;stroke-width: 2 } 
		.s4 { opacity: .8;fill: #e0e0e0 } 
		.s5 { fill: #f5f5f5 } 
		.s6 { fill: #fafafa } 
		.s7 { fill: #263238 } 
		.s8 { opacity: .2;fill: #ffffff } 
		.s9 { opacity: .4;fill: #ffffff } 
		.s10 { fill: #407bff } 
		.s11 { opacity: .6;fill: #ffffff } 
		.s12 { fill: #ffffff } 
		.s13 { opacity: .1;fill: #000000 } 
		.s14 { opacity: .7;fill: #ffffff } 
		.s15 { opacity: .2;fill: #000000 } 
		.s16 { fill: none;stroke: #ffffff;stroke-width: 2 } 
		.s17 { fill: none;stroke: #ffffff;stroke-width: 2;stroke-dasharray: 10,10 } 
		.s18 { fill: #407bff;stroke: #ffffff;stroke-width: 2 } 
		.s19 { fill: none;stroke: #ffffff;stroke-linecap: round;stroke-linejoin: round;stroke-width: 3 } 
		.s20 { opacity: .5;fill: #ffffff } 
		.s21 { fill: none;stroke: #407bff;stroke-width: 2 } 
		.s22 { fill: #ffffff;stroke: #407bff;stroke-width: 2 } 
		.s23 { opacity: .4;fill: #000000 } 
		.s24 { opacity: .9;fill: #ffffff } 
		.s25 { opacity: .3;fill: #000000 } 
		.s26 { fill: #ebb376 } 
		.s27 { fill: none;stroke: #263238;stroke-linecap: round;stroke-linejoin: round } 
		.s28 { opacity: .3;fill: #ffffff } 
		.s29 { fill: #b97964 } 
		.s30 { fill: #a24e3f } 
		.s31 { fill: none;stroke: #ffffff;stroke-linecap: round;stroke-linejoin: round;stroke-width: 4 } 
	</style>
	<g id="Background Complete">
		<g id="&lt;Group&gt;">
			<path id="&lt;Path&gt;" class="s0" d="m1000 765.3h-1000v-0.5h1000z"/>
			<path id="&lt;Path&gt;" class="s0" d="m833.6 797h66.2v0.5h-66.2z"/>
			<path id="&lt;Path&gt;" class="s0" d="m645.1 802.4h17.3v0.5h-17.3z"/>
			<path id="&lt;Path&gt;" class="s0" d="m793.2 778.4h38.4v0.5h-38.4z"/>
			<path id="&lt;Path&gt;" class="s0" d="m104.9 781.8h86.4v0.5h-86.4z"/>
			<path id="&lt;Path&gt;" class="s0" d="m209.1 781.8h12.7v0.5h-12.7z"/>
			<path id="&lt;Path&gt;" class="s0" d="m262.9 790.2h187.4v0.5h-187.4z"/>
			<path id="&lt;Compound Path&gt;" fill-rule="evenodd" class="s0" d="m474 675.6h-386.2c-6.3 0-11.4-5.1-11.4-11.4v-542.9c0-6.3 5.1-11.4 11.4-11.4h386.2c6.3 0 11.4 5.1 11.4 11.4v542.9c0 6.3-5.1 11.4-11.4 11.4zm-386.2-565.2c-6 0-10.9 4.9-10.9 10.9v542.9c0 6 4.9 10.9 10.9 10.9h386.2c6 0 10.9-4.9 10.9-10.9v-542.9c0-6-4.9-10.9-10.9-10.9z"/>
			<path id="&lt;Compound Path&gt;" fill-rule="evenodd" class="s0" d="m906.6 675.6h-386.2c-6.3 0-11.4-5.1-11.4-11.4v-542.9c0-6.3 5.1-11.4 11.4-11.4h386.2c6.3 0 11.4 5.1 11.4 11.4v542.9c0 6.3-5.1 11.4-11.4 11.4zm-386.2-565.2c-6 0-10.9 4.9-10.9 10.9v542.9c0 6 4.9 10.9 10.9 10.9h386.2c6 0 10.9-4.9 10.9-10.9v-542.9c0-6-4.9-10.9-10.9-10.9z"/>
		</g>
		<g id="&lt;Group&gt;">
			<g id="&lt;Group&gt;">
				<path id="&lt;Path&gt;" class="s1" d="m698.3 206l0.1 0.1h-61.3c-9.2 0-16.7-7.5-16.7-16.7 0-9.2 7.5-16.7 16.7-16.7q0.1 0 0.3 0c0.1-9.9 8.2-17.8 18.1-17.8 6.6 0 12.3 3.4 15.5 8.6q1.8-0.3 3.8-0.3c11.4 0 20.7 9.3 20.7 20.7q0 1.5-0.2 3 1.3-0.4 2.8-0.4c5.4 0 9.8 4.4 9.8 9.8 0 5.3-4.3 9.6-9.6 9.7z"/>
				<path id="&lt;Path&gt;" class="s2" d="m684.6 210.9l-20.5 17.3-20.4-17.3h12.7v-19.1h15.5v19.1z"/>
			</g>
			<g id="&lt;Group&gt;">
				<path id="&lt;Path&gt;" class="s1" d="m381.2 245.9h-130.1c-19.6 0-35.5-15.9-35.5-35.4 0-19.6 15.9-35.5 35.5-35.5q0.3 0 0.6 0.1c0.3-21 17.4-38 38.5-38 13.9 0 26 7.5 32.8 18.5q4-0.7 8.1-0.7c24.3 0 44 19.7 44 43.9q0 3.3-0.5 6.4c1.9-0.5 3.9-0.9 6-0.9 11.5 0 20.8 9.3 20.8 20.8 0 11.3-9 20.4-20.2 20.8z"/>
				<path id="&lt;Path&gt;" class="s2" d="m265.1 226.7l43.4-36.7 43.4 36.7h-26.9v40.5h-33v-40.5z"/>
			</g>
			<g id="&lt;Group&gt;">
				<path id="&lt;Path&gt;" class="s3" d="m417.9 326.3v-54.5h166.8v53.9"/>
				<path id="&lt;Path&gt;" class="s3" d="m503.8 220.5v105.6"/>
				<g id="&lt;Group&gt;">
					<path id="&lt;Path&gt;" class="s1" d="m534.5 202.1v33.8c0 1.3-1 2.3-2.3 2.3h-56.8c-1.3 0-2.3-1-2.3-2.3v-33.8c0-1.3 1-2.4 2.3-2.4h56.8c1.3 0 2.3 1.1 2.3 2.4z"/>
					<path id="&lt;Path&gt;" class="s2" d="m531.6 236.7h-55.6c-0.4 0-0.8-0.4-0.8-0.8v-30.8c0-0.5 0.4-0.8 0.8-0.8h55.6c0.4 0 0.8 0.3 0.8 0.8v30.8c0 0.4-0.4 0.8-0.8 0.8z"/>
				</g>
				<g id="&lt;Group&gt;">
					<path id="&lt;Path&gt;" class="s1" d="m448.7 323.7v33.8c0 1.3-1.1 2.3-2.4 2.3h-56.7c-1.3 0-2.4-1-2.4-2.3v-33.8c0-1.3 1.1-2.4 2.4-2.4h56.7c1.3 0 2.4 1.1 2.4 2.4z"/>
					<path id="&lt;Path&gt;" class="s2" d="m445.7 358.3h-55.5c-0.5 0-0.9-0.4-0.9-0.8v-30.8c0-0.5 0.4-0.9 0.9-0.9h55.5c0.5 0 0.9 0.4 0.9 0.9v30.8c0 0.4-0.4 0.8-0.9 0.8z"/>
				</g>
				<g id="&lt;Group&gt;">
					<path id="&lt;Path&gt;" class="s1" d="m534.5 323.7v33.8c0 1.3-1 2.3-2.3 2.3h-56.8c-1.3 0-2.3-1-2.3-2.3v-33.8c0-1.3 1-2.4 2.3-2.4h56.8c1.3 0 2.3 1.1 2.3 2.4z"/>
					<path id="&lt;Path&gt;" class="s2" d="m531.6 358.3h-55.6c-0.4 0-0.8-0.4-0.8-0.8v-30.8c0-0.5 0.4-0.9 0.8-0.9h55.6c0.4 0 0.8 0.4 0.8 0.9v30.8c0 0.4-0.4 0.8-0.8 0.8z"/>
				</g>
				<g id="&lt;Group&gt;">
					<path id="&lt;Path&gt;" class="s1" d="m615.6 323.7v33.8c0 1.3-1.1 2.3-2.4 2.3h-56.7c-1.3 0-2.4-1-2.4-2.3v-33.8c0-1.3 1.1-2.4 2.4-2.4h56.7c1.3 0 2.4 1.1 2.4 2.4z"/>
					<path id="&lt;Path&gt;" class="s2" d="m612.6 358.3h-55.5c-0.5 0-0.9-0.4-0.9-0.8v-30.8c0-0.5 0.4-0.9 0.9-0.9h55.5c0.5 0 0.9 0.4 0.9 0.9v30.8c0 0.4-0.4 0.8-0.9 0.8z"/>
				</g>
				<path id="&lt;Path&gt;" class="s2" d="m504.9 255.3l15.4 15.4c0.6 0.6 0.6 1.6 0 2.2l-15.4 15.4c-0.6 0.7-1.6 0.7-2.3 0l-15.3-15.4c-0.7-0.6-0.7-1.6 0-2.2l15.3-15.4c0.7-0.6 1.7-0.6 2.3 0z"/>
			</g>
			<g id="&lt;Group&gt;">
				<path id="&lt;Path&gt;" class="s4" d="m178.2 271.4h-40c-1 0-1.8-0.8-1.8-1.8v-22.6c0-0.9 0.8-1.7 1.8-1.7h40c0.9 0 1.7 0.8 1.7 1.7v22.6c0 1-0.8 1.8-1.7 1.8z"/>
				<path id="&lt;Path&gt;" class="s2" d="m147.6 321.3h-31.7c-0.9 0-1.7-0.8-1.7-1.8v-16.4c0-1 0.8-1.7 1.7-1.7h31.7c1 0 1.8 0.7 1.8 1.7v16.4c0 1-0.8 1.8-1.8 1.8z"/>
				<path id="&lt;Path&gt;" class="s2" d="m201 321.3h-31.7c-0.9 0-1.7-0.8-1.7-1.8v-16.4c0-1 0.8-1.7 1.7-1.7h31.7c1 0 1.8 0.7 1.8 1.7v16.4c0 1-0.8 1.8-1.8 1.8z"/>
				<g id="&lt;Group&gt;">
					<path id="&lt;Path&gt;" class="s2" d="m168.2 360.5h-15c-0.9 0-1.7-0.8-1.7-1.8v-13.5c0-0.9 0.8-1.7 1.7-1.7h15c1 0 1.7 0.8 1.7 1.7v13.5c0 1-0.7 1.8-1.7 1.8z"/>
					<path id="&lt;Path&gt;" class="s2" d="m191.7 360.5h-15c-1 0-1.8-0.8-1.8-1.8v-13.5c0-0.9 0.8-1.7 1.8-1.7h15c0.9 0 1.7 0.8 1.7 1.7v13.5c0 1-0.8 1.8-1.7 1.8z"/>
					<path id="&lt;Path&gt;" class="s2" d="m215.1 360.5h-15c-0.9 0-1.7-0.8-1.7-1.8v-13.5c0-0.9 0.8-1.7 1.7-1.7h15c1 0 1.7 0.8 1.7 1.7v13.5c0 1-0.7 1.8-1.7 1.8z"/>
				</g>
				<path id="&lt;Path&gt;" class="s2" d="m113.9 360.5h-14.9c-1 0-1.8-0.8-1.8-1.8v-13.5c0-0.9 0.8-1.7 1.8-1.7h14.9c1 0 1.8 0.8 1.8 1.7v13.5c0 1-0.8 1.8-1.8 1.8z"/>
				<path id="&lt;Path&gt;" class="s2" d="m139.4 360.5h-15c-1 0-1.7-0.8-1.7-1.8v-13.5c0-0.9 0.7-1.7 1.7-1.7h15c1 0 1.7 0.8 1.7 1.7v13.5c0 1-0.7 1.8-1.7 1.8z"/>
				<g id="&lt;Group&gt;">
					<path id="&lt;Path&gt;" class="s2" d="m183.2 289.4h-50v12h-2v-14h26v-16h2v16h26v14h-2z"/>
					<path id="&lt;Path&gt;" class="s2" d="m131.2 321.4h2v22h-2v-8h-24v8h-2v-10h26z"/>
					<path id="&lt;Path&gt;" class="s2" d="m209.2 335.4v8h-2v-6h-22v6h-2v-6h-22v6h-2v-8h24v-14h2v14z"/>
				</g>
			</g>
			<g id="&lt;Group&gt;">
				<path id="&lt;Compound Path&gt;" fill-rule="evenodd" class="s5" d="m769.4 250.9c1-4.9 2.9-9.3 5.5-13.3l-4.8-5.7 10.2-10.2 5.7 4.7c4-2.6 8.5-4.5 13.3-5.5l0.7-7.4h14.4l0.7 7.4c4.8 1 9.3 2.9 13.3 5.5l5.7-4.7 10.2 10.2-4.8 5.7c2.6 4 4.5 8.4 5.5 13.3l7.4 0.7v14.3l-7.4 0.7c-1 4.8-2.9 9.3-5.5 13.3l4.8 5.7-10.2 10.2-5.7-4.8c-4 2.7-8.5 4.6-13.3 5.6l-0.7 7.4h-14.4l-0.7-7.4c-4.8-1-9.3-2.9-13.3-5.6l-5.7 4.8-10.2-10.2 4.8-5.7c-2.6-4-4.5-8.5-5.5-13.3l-7.4-0.7v-14.3zm18.4 7.8c0 10.8 8.7 19.5 19.4 19.5 10.7 0 19.5-8.7 19.5-19.5 0-10.7-8.8-19.4-19.5-19.4-10.7 0-19.4 8.7-19.4 19.4z"/>
				<path id="&lt;Compound Path&gt;" fill-rule="evenodd" class="s5" d="m770.7 362.2h-11.2l-0.6-5.8c-3.8-0.8-7.3-2.3-10.4-4.3l-4.5 3.7-7.9-8 3.7-4.5c-2.1-3.1-3.6-6.6-4.3-10.4l-5.8-0.5v-11.3l5.8-0.5c0.7-3.8 2.2-7.3 4.3-10.4l-3.7-4.5 7.9-8 4.5 3.7c3.1-2 6.6-3.5 10.4-4.3l0.6-5.8h11.2l0.6 5.8c3.7 0.8 7.2 2.3 10.4 4.3l4.5-3.7 7.9 8-3.7 4.5c2 3.1 3.5 6.6 4.3 10.4l5.8 0.5v11.3l-5.8 0.5c-0.8 3.8-2.3 7.3-4.3 10.4l3.7 4.5-7.9 8-4.5-3.7c-3.2 2-6.7 3.5-10.4 4.3zm-5.7-20.2c8.5 0 15.3-6.8 15.3-15.2 0-8.5-6.8-15.3-15.3-15.3-8.4 0-15.2 6.8-15.2 15.3 0 8.4 6.8 15.2 15.2 15.2z"/>
				<path id="&lt;Compound Path&gt;" fill-rule="evenodd" class="s5" d="m737.4 299.1l-0.4 4.9h-9.5l-0.5-4.9c-3.1-0.7-6.1-1.9-8.7-3.6l-3.8 3.1-6.7-6.7 3.2-3.8c-1.8-2.6-3-5.5-3.7-8.7l-4.8-0.5v-9.4l4.8-0.5c0.7-3.2 1.9-6.1 3.7-8.7l-3.2-3.8 6.7-6.7 3.8 3.1c2.6-1.7 5.6-2.9 8.7-3.6l0.5-4.9h9.5l0.4 4.9c3.2 0.7 6.1 1.9 8.7 3.6l3.8-3.1 6.7 6.7-3.1 3.8c1.7 2.6 3 5.5 3.6 8.7l4.9 0.5v9.4l-4.9 0.5c-0.6 3.2-1.9 6.1-3.6 8.7l3.1 3.8-6.7 6.7-3.8-3.1c-2.6 1.7-5.5 2.9-8.7 3.6zm-5.2-12.1c7.1 0 12.8-5.7 12.8-12.8 0-7.1-5.7-12.8-12.8-12.8-7 0-12.8 5.7-12.8 12.8 0 7.1 5.8 12.8 12.8 12.8z"/>
			</g>
			<g id="&lt;Group&gt;">
				<g id="&lt;Group&gt;">
					<path id="&lt;Path&gt;" class="s5" d="m878.8 735.4h-134.3v-87.3h134.3z"/>
				</g>
				<path id="&lt;Path&gt;" class="s2" d="m873.9 731h-124.5v-66.6h124.5z"/>
				<g id="&lt;Group&gt;">
					<path id="&lt;Path&gt;" class="s5" d="m851.6 677.3h-92.1v-2.9h92.1z"/>
					<path id="&lt;Path&gt;" class="s5" d="m803.7 686h-44.2v-2.8h44.2z"/>
					<path id="&lt;Path&gt;" class="s5" d="m815.2 694.8h-55.7v-2.9h55.7z"/>
					<path id="&lt;Path&gt;" class="s5" d="m779.1 703.6h-19.6v-2.9h19.6z"/>
					<path id="&lt;Path&gt;" class="s5" d="m772.2 712.4h-12.7v-2.9h12.7z"/>
				</g>
			</g>
			<g id="&lt;Group&gt;">
				<path id="&lt;Path&gt;" class="s0" d="m191.5 706.5l-95.6 0.4-0.3-58.9 95.6-0.4z"/>
				<g id="&lt;Group&gt;">
					<g id="&lt;Group&gt;">
						<path id="&lt;Path&gt;" class="s6" d="m132.3 692.1q-0.6 0-1.2-0.4l-17.4-12.7c-0.5-0.4-0.8-1-0.8-1.6-0.1-0.6 0.2-1.2 0.8-1.6l17.3-12.9c0.9-0.7 2.1-0.5 2.8 0.4 0.6 0.9 0.4 2.1-0.4 2.8l-15.2 11.3 15.3 11.1c0.9 0.7 1.1 1.9 0.4 2.8-0.4 0.5-1 0.8-1.6 0.8z"/>
					</g>
					<g id="&lt;Group&gt;">
						<path id="&lt;Path&gt;" class="s6" d="m154.9 692c-0.6 0-1.2-0.3-1.6-0.8-0.7-0.9-0.5-2.1 0.4-2.8l15.2-11.3-15.3-11.1c-0.9-0.6-1.1-1.9-0.4-2.8 0.6-0.9 1.9-1.1 2.8-0.4l17.4 12.7c0.5 0.4 0.8 1 0.8 1.6 0 0.7-0.3 1.2-0.8 1.6l-17.3 12.9c-0.4 0.3-0.8 0.4-1.2 0.4z"/>
					</g>
					<g id="&lt;Group&gt;">
						<path id="&lt;Path&gt;" class="s6" d="m139 692.1q-0.3 0-0.6-0.1c-1.1-0.4-1.6-1.5-1.2-2.6l8.9-25.6c0.4-1.1 1.5-1.6 2.6-1.3 1 0.4 1.6 1.5 1.2 2.6l-9 25.7c-0.3 0.8-1 1.3-1.9 1.3z"/>
					</g>
				</g>
			</g>
		</g>
	</g>
	<g id="Shadow">
		<path id="&lt;Path&gt; 359 " class="s5" d="m887.8 832.5c0 12.5-173.6 22.6-387.8 22.6-214.2 0-387.8-10.1-387.8-22.6 0-12.5 173.6-22.7 387.8-22.7 214.2 0 387.8 10.2 387.8 22.7z"/>
	</g>
	<g id="Ladder">
		<g id="&lt;Group&gt;">
			<g id="&lt;Group&gt;">
				<path id="&lt;Path&gt;" class="s7" d="m688.8 722h14.7l-20 110.5h-14.7z"/>
				<path id="&lt;Path&gt;" class="s8" d="m688.8 722h14.7l-20 110.5h-14.7z"/>
				<path id="&lt;Path&gt;" class="s8" d="m688.8 722h10.7l-20 110.5h-10.7z"/>
			</g>
			<path id="&lt;Path&gt;" class="s7" d="m624.1 751.6c0-1.8 1.5-3.2 3.3-3.2h58.8c1.8 0 3.2 1.4 3.2 3.2 0 1.8-1.4 3.3-3.2 3.3h-58.8c-1.8 0-3.3-1.5-3.3-3.3z"/>
			<path id="&lt;Path&gt;" class="s7" d="m617.6 788.6c0-1.8 1.5-3.2 3.2-3.2h58.8c1.8 0 3.3 1.4 3.3 3.2 0 1.8-1.5 3.3-3.3 3.3h-58.8c-1.7 0-3.2-1.5-3.2-3.3z"/>
			<g id="&lt;Group&gt;">
				<path id="&lt;Path&gt;" class="s7" d="m628.8 722h14.7l-20 110.5h-14.7z"/>
				<path id="&lt;Path&gt;" class="s8" d="m628.8 722h14.7l-20 110.5h-14.7z"/>
				<path id="&lt;Path&gt;" class="s8" d="m628.8 722h10.7l-20 110.5h-10.7z"/>
			</g>
			<g id="&lt;Group&gt;">
				<path id="&lt;Path&gt;" class="s7" d="m745.5 832.5h-14.7l-20-110.5h14.7z"/>
				<path id="&lt;Path&gt;" class="s9" d="m745.5 832.5h-14.7l-20-110.5h14.7z"/>
				<path id="&lt;Path&gt;" class="s8" d="m741.5 832.5h-10.7l-20-110.5h10.7z"/>
			</g>
			<path id="&lt;Path&gt;" class="s7" d="m719.6 754.9h-58.8c-1.7 0-3.2-1.5-3.2-3.3 0-1.8 1.5-3.2 3.2-3.2h58.8c1.8 0 3.3 1.4 3.3 3.2 0 1.8-1.5 3.3-3.3 3.3z"/>
			<path id="&lt;Path&gt;" class="s7" d="m726.2 791.9h-58.8c-1.8 0-3.3-1.5-3.3-3.3 0-1.8 1.5-3.2 3.3-3.2h58.8c1.8 0 3.2 1.4 3.2 3.2 0 1.8-1.4 3.3-3.2 3.3z"/>
			<path id="&lt;Path&gt;" class="s8" d="m719.6 754.9h-58.8c-1.7 0-3.2-1.5-3.2-3.3 0-1.8 1.5-3.2 3.2-3.2h58.8c1.8 0 3.3 1.4 3.3 3.2 0 1.8-1.5 3.3-3.3 3.3z"/>
			<path id="&lt;Path&gt;" class="s8" d="m726.2 791.9h-58.8c-1.8 0-3.3-1.5-3.3-3.3 0-1.8 1.5-3.2 3.3-3.2h58.8c1.8 0 3.2 1.4 3.2 3.2 0 1.8-1.4 3.3-3.2 3.3z"/>
			<g id="&lt;Group&gt;">
				<path id="&lt;Path&gt;" class="s7" d="m685.5 832.5h-14.7l-20-110.5h14.7z"/>
				<path id="&lt;Path&gt;" class="s9" d="m685.5 832.5h-14.7l-20-110.5h14.7z"/>
				<path id="&lt;Path&gt;" class="s8" d="m681.5 832.5h-10.7l-20-110.5h10.7z"/>
			</g>
			<g id="&lt;Group&gt;">
				<path id="&lt;Path&gt;" class="s7" d="m731.2 727.3h-106.2c-1.3 0-2.4-1.1-2.4-2.4v-5.8c0-1.3 1.1-2.4 2.4-2.4h106.2c1.3 0 2.4 1.1 2.4 2.4v5.8c0 1.3-1.1 2.4-2.4 2.4z"/>
				<path id="&lt;Path&gt;" class="s8" d="m665.4 727.3h-40.4c-1.3 0-2.4-1.1-2.4-2.4v-5.8c0-1.3 1.1-2.4 2.4-2.4h40.4c1.3 0 2.3 1.1 2.3 2.4v5.8c0 1.3-1 2.4-2.3 2.4z"/>
			</g>
		</g>
	</g>
	<g id="interface">
		<g id="&lt;Group&gt;">
			<g id="&lt;Group&gt;">
				<path id="&lt;Path&gt;" class="s10" d="m388.7 831h-134.3v-87.3h134.3z"/>
				<path id="&lt;Path&gt;" class="s11" d="m388.7 831h-134.3v-87.3h134.3z"/>
			</g>
			<path id="&lt;Path&gt;" class="s10" d="m383.8 826.7h-124.5v-66.6h124.5z"/>
			<g id="&lt;Group&gt;">
				<path id="&lt;Path&gt;" class="s12" d="m361.5 772.9h-92v-2.9h92z"/>
				<path id="&lt;Path&gt;" class="s12" d="m313.6 781.7h-44.1v-2.9h44.1z"/>
				<path id="&lt;Path&gt;" class="s12" d="m325.1 790.4h-55.6v-2.8h55.6z"/>
				<path id="&lt;Path&gt;" class="s12" d="m289.1 799.2h-19.6v-2.9h19.6z"/>
				<path id="&lt;Path&gt;" class="s12" d="m282.2 808h-12.7v-2.9h12.7z"/>
			</g>
		</g>
	</g>
	<g id="Monitor">
		<g id="&lt;Group&gt;">
			<g id="&lt;Group&gt;">
				<path id="&lt;Path&gt;" class="s10" d="m554.7 832.5h-109.4l18.5-145.4h72.4z"/>
				<path id="&lt;Path&gt;" class="s11" d="m554.7 832.5h-109.4l12.7-99.5 5.9-45.9h72.2l8.7 67.8z"/>
				<path id="&lt;Path&gt;" class="s13" d="m544.8 754.9l-86.8-21.9 5.9-45.9h72.2z"/>
			</g>
			<g id="&lt;Group&gt;">
				<path id="&lt;Path&gt;" class="s10" d="m770.9 342v348.9c0 7.3-5.9 13.2-13.2 13.2h-10.9-493.6-10.9c-7.3 0-13.2-5.9-13.2-13.2v-348.9c0-7.3 5.9-13.2 13.2-13.2h10.9 493.6 10.9c7.3 0 13.2 5.9 13.2 13.2z"/>
				<path id="&lt;Path&gt;" class="s14" d="m770.9 342v348.9c0 7.3-5.9 13.2-13.2 13.2h-10.9-493.6-10.9c-7.3 0-13.2-5.9-13.2-13.2v-348.9c0-7.3 5.9-13.2 13.2-13.2h10.9 493.6 10.9c7.3 0 13.2 5.9 13.2 13.2z"/>
			</g>
			<path id="&lt;Path&gt;" class="s10" d="m753.6 341.7v336.5h-507.2v-336.5z"/>
			<g id="&lt;Group&gt;">
				<path id="&lt;Path&gt;" class="s10" d="m593.9 823.6v6.6c0 1.2-0.9 2.1-2.1 2.1h-183.6c-1.2 0-2.1-0.9-2.1-2.1v-6.6c0-1.1 0.9-2 2.1-2h183.6c1.2 0 2.1 0.9 2.1 2z"/>
				<path id="&lt;Path&gt;" class="s14" d="m593.9 823.6v6.6c0 1.2-0.9 2.1-2.1 2.1h-183.6c-1.2 0-2.1-0.9-2.1-2.1v-6.6c0-1.1 0.9-2 2.1-2h183.6c1.2 0 2.1 0.9 2.1 2z"/>
			</g>
			<g id="&lt;Group&gt;">
				<path id="&lt;Path&gt;" class="s15" d="m753.6 392.2h-507.2v-50.2h507.2z"/>
				<path id="&lt;Path&gt;" class="s9" d="m246.4 392.8h217.4v285.4h-217.4z"/>
				<g id="&lt;Group&gt;">
					<g id="&lt;Group&gt;">
						<g id="&lt;Group&gt;">
							<path id="&lt;Path&gt;" class="s16" d="m675.5 465.6v5h-5"/>
							<path id="&lt;Path&gt;" class="s17" d="m660 470.6h-163.8"/>
							<path id="&lt;Path&gt;" class="s16" d="m490.9 470.6h-5v-5"/>
							<path id="&lt;Path&gt;" class="s17" d="m485.9 456.5v-86.1"/>
							<path id="&lt;Path&gt;" class="s16" d="m485.9 365.9v-5h5"/>
							<path id="&lt;Path&gt;" class="s17" d="m501.4 360.9h163.8"/>
							<path id="&lt;Path&gt;" class="s16" d="m670.5 360.9h5v5"/>
							<path id="&lt;Path&gt;" class="s17" d="m675.5 375v86"/>
						</g>
					</g>
					<g id="&lt;Group&gt;">
						<path id="&lt;Path&gt;" class="s18" d="m678.7 357.7v6.4h-6.3v-6.4z"/>
						<path id="&lt;Path&gt;" class="s18" d="m672.4 467.4h6.3v6.3h-6.3z"/>
						<path id="&lt;Path&gt;" class="s18" d="m482.7 357.7h6.3v6.4h-6.3z"/>
						<path id="&lt;Path&gt;" class="s18" d="m482.7 467.4h6.3v6.3h-6.3z"/>
					</g>
					<g id="&lt;Group&gt;">
						<path id="&lt;Path&gt;" class="s18" d="m577.5 357.7h6.4v6.4h-6.4z"/>
						<path id="&lt;Path&gt;" class="s18" d="m577.5 467.4h6.4v6.3h-6.4z"/>
					</g>
					<g id="&lt;Group&gt;">
						<path id="&lt;Path&gt;" class="s18" d="m672.4 412.6h6.3v6.3h-6.3z"/>
						<path id="&lt;Path&gt;" class="s18" d="m482.7 412.6h6.3v6.3h-6.3z"/>
					</g>
				</g>
				<path id="&lt;Path&gt;" class="s14" d="m658.3 417.7h-46.4c-2.1 0-3.8-1.7-3.8-3.8v-12.4c0-2.1 1.7-3.8 3.8-3.8h46.4c2.1 0 3.8 1.7 3.8 3.8v12.4c0 2.1-1.7 3.8-3.8 3.8z"/>
				<path id="&lt;Path&gt;" class="s14" d="m578.3 417.7h-46.4c-2.1 0-3.8-1.7-3.8-3.8v-12.4c0-2.1 1.7-3.8 3.8-3.8h46.4c2.1 0 3.8 1.7 3.8 3.8v12.4c0 2.1-1.7 3.8-3.8 3.8z"/>
				<path id="&lt;Path&gt;" class="s14" d="m475.3 660.9h-46.4c-2.1 0-3.8-1.7-3.8-3.8v-12.4c0-2.1 1.7-3.8 3.8-3.8h46.4c2.1 0 3.8 1.7 3.8 3.8v12.4c0 2.1-1.7 3.8-3.8 3.8z"/>
				<g id="&lt;Group&gt;">
					<path id="&lt;Path&gt;" class="s19" d="m720.1 359.8h16.9"/>
					<path id="&lt;Path&gt;" class="s19" d="m720.1 367.8h16.9"/>
					<path id="&lt;Path&gt;" class="s19" d="m720.1 375.8h16.9"/>
				</g>
				<path id="&lt;Path&gt;" class="s20" d="m450.9 607.1h-170.1v-170.1h170.1z"/>
				<g id="&lt;Group&gt;">
					<path id="&lt;Path&gt;" class="s21" d="m352 450.9v146.7"/>
					<path id="&lt;Path&gt;" class="s21" d="m425.4 597.6c-40.5 0-73.4-32.8-73.4-73.3 0-40.5 32.9-73.4 73.4-73.4"/>
					<path id="&lt;Path&gt;" class="s22" d="m422.2 447.7h6.4v6.4h-6.4z"/>
					<path id="&lt;Path&gt;" class="s22" d="m422.2 594.5h6.4v6.3h-6.4z"/>
					<path id="&lt;Path&gt;" class="s22" d="m348.9 521.1h6.3v6.3h-6.3z"/>
					<path id="&lt;Path&gt;" class="s22" d="m353.7 450.9c0 0.9-0.8 1.7-1.7 1.7-0.9 0-1.6-0.8-1.6-1.7 0-0.9 0.7-1.6 1.6-1.6 0.9 0 1.7 0.7 1.7 1.6z"/>
					<path id="&lt;Path&gt;" class="s22" d="m353.7 597.6c0 0.9-0.8 1.7-1.7 1.7-0.9 0-1.6-0.8-1.6-1.7 0-0.9 0.7-1.6 1.6-1.6 0.9 0 1.7 0.7 1.7 1.6z"/>
				</g>
				<path id="&lt;Path&gt;" class="s14" d="m633.9 643.3h-51.5c-8.3 0-14.9-6.6-14.9-14.8 0-8.3 6.6-14.9 14.9-14.9h51.5c8.2 0 14.8 6.6 14.8 14.9 0 8.2-6.6 14.8-14.8 14.8z"/>
				<path id="&lt;Path&gt;" class="s14" d="m679.1 516.4h-159.1c-1.8 0-3.2-1.4-3.2-3.2 0-1.8 1.4-3.3 3.2-3.3h159.1c1.8 0 3.3 1.5 3.3 3.3 0 1.8-1.5 3.2-3.3 3.2z"/>
				<path id="&lt;Path&gt;" class="s14" d="m679.1 540.2h-159.1c-1.8 0-3.2-1.5-3.2-3.3 0-1.8 1.4-3.2 3.2-3.2h159.1c1.8 0 3.3 1.4 3.3 3.2 0 1.8-1.5 3.3-3.3 3.3z"/>
				<path id="&lt;Path&gt;" class="s14" d="m679.1 563.9h-99.1c-1.8 0-3.2-1.4-3.2-3.2 0-1.8 1.4-3.3 3.2-3.3h99.1c1.8 0 3.3 1.5 3.3 3.3 0 1.8-1.5 3.2-3.3 3.2z"/>
				<g id="&lt;Group&gt;">
					<path id="&lt;Path&gt;" class="s23" d="m273.7 367.1h-11.2v-11.2h11.2z"/>
					<path id="&lt;Path&gt;" class="s23" d="m292.7 367.1h-5.5c-1.6 0-2.9-1.2-2.9-2.8v-5.5c0-1.6 1.3-2.9 2.9-2.9h5.5c1.6 0 2.8 1.3 2.8 2.9v5.5c0 1.6-1.2 2.8-2.8 2.8z"/>
					<path id="&lt;Path&gt;" class="s23" d="m312.2 367.1h-0.9c-2.8 0-5.1-2.3-5.1-5.1v-1c0-2.8 2.3-5.1 5.1-5.1h0.9c2.9 0 5.2 2.3 5.2 5.1v1c0 2.8-2.3 5.1-5.2 5.1z"/>
				</g>
				<g id="&lt;Group&gt;">
					<g id="&lt;Group&gt;">
						<path id="&lt;Compound Path&gt;" fill-rule="evenodd" class="s24" d="m294.7 633.2c-0.3 1.5-0.9 2.8-1.7 4.1l1.4 1.7-3.1 3.1-1.7-1.4c-1.2 0.8-2.6 1.3-4.1 1.6l-0.2 2.3h-4.4l-0.2-2.3c-1.4-0.3-2.8-0.8-4-1.6l-1.8 1.4-3.1-3.1 1.5-1.7c-0.8-1.3-1.4-2.6-1.7-4.1l-2.3-0.2v-4.4l2.3-0.2c0.3-1.5 0.9-2.8 1.7-4l-1.5-1.8 3.1-3.1 1.8 1.5c1.2-0.8 2.6-1.4 4-1.7l0.2-2.3h4.4l0.2 2.3c1.5 0.3 2.9 0.9 4.1 1.7l1.7-1.5 3.1 3.1-1.4 1.8c0.8 1.2 1.4 2.5 1.7 4l2.2 0.2v4.4zm-5.6-2.4c0-3.3-2.6-5.9-5.9-5.9-3.3 0-5.9 2.6-5.9 5.9 0 3.3 2.6 5.9 5.9 5.9 3.3 0 5.9-2.6 5.9-5.9z"/>
						<path id="&lt;Compound Path&gt;" fill-rule="evenodd" class="s11" d="m312.9 645.5q-0.4 1.8-1.3 3.2l1.1 1.4-2.4 2.4-1.4-1.1c-0.9 0.6-2 1-3.2 1.3l-0.1 1.7h-3.5l-0.1-1.7q-1.8-0.4-3.2-1.3l-1.4 1.1-2.4-2.4 1.1-1.4q-0.9-1.4-1.3-3.2l-1.7-0.1v-3.5l1.7-0.1q0.4-1.8 1.3-3.2l-1.1-1.4 2.4-2.4 1.4 1.1q1.4-0.9 3.2-1.3l0.1-1.8h3.5l0.1 1.8c1.2 0.3 2.3 0.7 3.2 1.3l1.4-1.1 2.4 2.4-1.1 1.4q0.9 1.4 1.3 3.2l1.8 0.1v3.5zm-4.4-1.9c0-2.6-2.1-4.7-4.7-4.7-2.5 0-4.6 2.1-4.6 4.7 0 2.5 2.1 4.6 4.6 4.6 2.6 0 4.7-2.1 4.7-4.6z"/>
						<path id="&lt;Compound Path&gt;" fill-rule="evenodd" class="s9" d="m295.4 655.2q-0.3 1.5-1.1 2.7l1 1.2-2.1 2-1.1-1q-1.2 0.8-2.7 1.2l-0.1 1.4h-2.9l-0.1-1.4q-1.5-0.4-2.7-1.2l-1.2 1-2-2 1-1.2q-0.8-1.2-1.1-2.7l-1.5-0.1v-2.9l1.5-0.1q0.3-1.5 1.1-2.7l-1-1.1 2-2.1 1.2 1q1.2-0.8 2.7-1.1l0.1-1.5h2.9l0.1 1.5q1.5 0.3 2.7 1.1l1.1-1 2.1 2.1-1 1.1q0.8 1.2 1.1 2.7l1.5 0.1v2.9zm-3.7-1.6c0-2.1-1.7-3.9-3.9-3.9-2.1 0-3.9 1.8-3.9 3.9 0 2.2 1.8 3.9 3.9 3.9 2.2 0 3.9-1.7 3.9-3.9z"/>
					</g>
				</g>
			</g>
			<g id="&lt;Group&gt;">
				<g id="&lt;Group&gt;">
					<path id="&lt;Path&gt;" class="s10" d="m697 368.3l-14.2 14.2-8.4-22.7z"/>
					<path id="&lt;Path&gt;" class="s10" d="m695 377.3l-3.1 3.2-7.1-7.1 3.2-3.1z"/>
				</g>
				<path id="&lt;Path&gt;" class="s9" d="m691.5 373.8l3.5 3.5-3.1 3.2-3.5-3.6-5.6 5.6-8.4-22.7 22.6 8.5z"/>
			</g>
			<g id="&lt;Group&gt;">
				<path id="&lt;Path&gt;" class="s7" d="m328.5 433.8l-2.6-0.3-1.3-1.3 7.8-7.9 1.4 1.4 0.2 2.5 7.1-1.6 8 21.4-11.2-11.2c0.5-0.8 0.4-1.9-0.3-2.6-0.9-0.9-2.3-0.9-3.1 0-0.9 0.8-0.9 2.2 0 3.1 0.7 0.7 1.7 0.8 2.6 0.3l11.2 11.2-21.4-8z"/>
				<path id="&lt;Path&gt;" class="s8" d="m328.5 433.8l-2.6-0.3-1.3-1.3 7.8-7.9 1.4 1.4 0.2 2.5 7.1-1.6 8 21.4-11.2-11.2c0.5-0.8 0.4-1.9-0.3-2.6-0.9-0.9-2.3-0.9-3.1 0-0.9 0.8-0.9 2.2 0 3.1 0.7 0.7 1.7 0.8 2.6 0.3l11.2 11.2-21.4-8z"/>
			</g>
			<g id="&lt;Group&gt;" style="opacity: .1">
				<path id="&lt;Path&gt;" class="s12" d="m320.6 341.7l-75.2 280.8v-280.8z"/>
				<path id="&lt;Path&gt;" class="s12" d="m405.4 341.7l-90 336.5h-62.1l90.1-336.5z"/>
				<path id="&lt;Path&gt;" class="s12" d="m495.6 341.7l-90 336.5h-28.1l90.1-336.5z"/>
				<path id="&lt;Path&gt;" class="s12" d="m578.7 341.7l-90.1 336.5h-10l90-336.5z"/>
			</g>
		</g>
	</g>
	<g id="Character 2">
		<g id="&lt;Group&gt;">
			<g id="&lt;Group&gt;">
				<path id="&lt;Path&gt;" class="s7" d="m883.8 415.9c7.1 8.2 43.2 77.8 36.2 94-6.9 16.3-64.8-2.4-64.8-2.4l3.4-23c0 0 22.5 0.8 24.7-1.3 2.1-2.1-30.4-34.7-30.4-34.7z"/>
				<g id="&lt;Group&gt;" style="opacity: .2">
					<path id="&lt;Path&gt;" class="s12" d="m920 509.9c-0.8 1.9-2.2 3.3-4.2 4.3q0 0 0 0.1-0.6 0.2-1.2 0.5-0.1 0-0.2 0-0.5 0.3-1.1 0.4-2.2 0.8-5 1.1-0.7 0-1.4 0.1-1.1 0.1-2.2 0.1-0.9 0.1-1.9 0.1c-19.4 0-47.6-9.1-47.6-9.1l3.4-23c0 0 22.5 0.8 24.7-1.3 0.5-0.5-1-2.9-3.7-6.1q0 0 0 0c-6.4-7.8-19.1-20.9-24.4-26.2-1.4-1.5-2.3-2.4-2.3-2.4l30.9-32.6c7.1 8.2 43.2 77.8 36.2 94z"/>
				</g>
			</g>
			<path id="&lt;Path&gt;" class="s15" d="m915.8 514.2q0 0 0 0.1-0.6 0.2-1.2 0.5-0.1 0-0.2 0-0.5 0.3-1.1 0.4-2.2 0.8-5 1.1-0.7 0-1.4 0.1-1.1 0.1-2.2 0.1-0.9 0.1-1.9 0.1c-19.4 0-47.6-9.1-47.6-9.1l3.4-23c0 0 25.4 2.2 27.5 0 0.1 0 0.1 0 0.1-0.1 0.4-0.8-2.4-3.7-6.6-7.3q0 0 0 0c-6.4-7.8-19.1-20.9-24.4-26.2l14.7-15.6 11.1-1.2c0 0 24.6 39.8 34.8 80.1z"/>
			<g id="&lt;Group&gt;">
				<path id="&lt;Path&gt;" class="s7" d="m820.9 412.3l105.7 145.7c1.6 2.2-0.4 6.3-4.4 9.2-4 2.9-8.5 3.5-10.1 1.3l-105.7-145.7c-1.6-2.1 0.4-6.3 4.4-9.2 4-2.9 8.6-3.5 10.1-1.3z"/>
				<path id="&lt;Path&gt;" class="s14" d="m820.9 412.3l105.7 145.7c1.6 2.2-0.4 6.3-4.4 9.2-4 2.9-8.5 3.5-10.1 1.3l-105.7-145.7c-0.8-1.2-0.6-3 0.4-4.8 0.5-0.9 1.2-1.8 2-2.6q0.9-0.9 2-1.8c4-2.9 8.6-3.5 10.1-1.3z"/>
				<path id="&lt;Path&gt;" class="s25" d="m926.6 558c1.6 2.2-0.4 6.3-4.4 9.2-4 2.9-8.5 3.5-10.1 1.3-0.9-1.2 1.3-3 2.6-5.6l-107.9-144.9c0.5-0.9 1.2-1.8 2-2.6l105.7 145.7q0.9-0.9 2-1.8c4-2.9 8.5-3.5 10.1-1.3z"/>
			</g>
			<g id="&lt;Group&gt;">
				<path id="&lt;Path&gt;" class="s10" d="m807.4 406.4l131.4 123c2 1.8 0.8 6.2-2.6 9.9-3.3 3.6-7.7 5-9.6 3.2l-131.4-123c-2-1.9-0.8-6.3 2.5-9.9 3.4-3.6 7.8-5.1 9.7-3.2z"/>
				<path id="&lt;Path&gt;" class="s14" d="m807.4 406.4l131.4 123c2 1.8 0.8 6.2-2.6 9.9-3.4 3.6-7.7 5-9.6 3.2l-131.4-123c-1.1-1.1-1.2-2.9-0.6-4.9 0.3-0.9 0.8-1.9 1.5-2.9q0.7-1.1 1.6-2.1c3.4-3.6 7.8-5.1 9.7-3.2z"/>
				<path id="&lt;Path&gt;" class="s25" d="m938.8 529.4c2 1.8 0.8 6.2-2.6 9.9-3.4 3.6-7.7 5-9.6 3.2-1.1-1 0.7-3.2 1.4-6.1l-133.4-121.8c0.3-0.9 0.8-1.9 1.5-2.9l131.4 123q0.7-1.1 1.6-2.1c3.4-3.6 7.8-5 9.7-3.2z"/>
			</g>
			<path id="&lt;Path&gt;" class="s26" d="m829.3 802.2l-10 0.2c-10.2-47.9-17.4-107-21.9-151.7-0.7-7-1.3-13.6-1.9-19.8q-0.4-4.4-0.7-8.5c-1.2-13.4-2-24-2.5-30.6-0.4-4.8-0.6-7.4-0.6-7.4h36.2l-0.3 9.2-1.1 30.4-0.2 3.5-0.7 20.1-1.3 34.2c12.4 48.2 5 120.4 5 120.4z"/>
			<path id="&lt;Path&gt;" class="s26" d="m910.5 799.6l-9.8 1.9c-19.8-49.3-38.3-112.5-50.4-156.7-1.8-6.8-3.6-13.2-5.1-19q-0.1-0.4-0.2-0.9c-3.1-11.5-5.4-20.7-6.9-26.5-1.1-4.5-1.7-7-1.7-7l35.7-6.2 2 15 3 22 0.6 4.4 2 15 5.4 40.3c20.4 45.3 25.4 117.7 25.4 117.7z"/>
			<path id="&lt;Path&gt;" class="s15" d="m877.1 622.2l-31.9 3.6q-0.1-0.4-0.2-0.9c-3.1-11.5-5.4-20.7-6.9-26.5l36 1.8z"/>
			<path id="&lt;Path&gt;" class="s15" d="m827.6 593.6l-1.1 30.4-0.2 3.5-30.8 3.4q-0.4-4.4-0.7-8.5c-1.2-13.4-2-24-2.5-30.6z"/>
			<path id="&lt;Path&gt;" class="s7" d="m799.7 835.4c1.9-1.5 4-2.6 6.3-3.4 0 0 6.8-6.7 10.1-27.1l8.9-2.3c3.1-0.8 6.4 0.5 8.2 3.1q0.3 0.6 0.5 1.2 0.7 3.3 1 6.6c0.9 6.9 0.1 22.4 0.1 22.4h-1.6l-0.6-14c-0.3-4.8-3.9 0.8-5 5.9-1 5.1-3.2 10.6-13.7 10.9-12.2 0.2-17.2-0.3-14.2-3.3z"/>
			<path id="&lt;Path&gt;" class="s7" d="m814.8 811.6c2-7.1-0.4-16.5-0.4-16.5l19.8-2.2c0 0-0.1 8.2-0.7 13 0 0-8.7 3-18.7 5.7z"/>
			<path id="&lt;Path&gt;" class="s7" d="m880.5 835.4c1.8-1.5 3.9-2.6 6.2-3.4 0 0 6.8-6.7 10.1-27.1l9-2.3c3.1-0.8 6.3 0.5 8.1 3.1q0.4 0.6 0.5 1.2 0.7 3.3 1 6.6c0.9 6.9 0.1 22.4 0.1 22.4h-1.6l-0.6-14c-0.3-4.8-3.9 0.8-5 5.9-1 5.1-3.2 10.6-13.7 10.9-12.2 0.2-17.2-0.3-14.1-3.3z"/>
			<path id="&lt;Path&gt;" class="s7" d="m895.5 811.6c2-7.1-0.4-16.5-0.4-16.5l19.9-2.2c0 0-0.2 8.2-0.8 13 0 0-8.7 3-18.7 5.7z"/>
			<path id="&lt;Path&gt;" class="s10" d="m880.5 612.4l-37.7 4.8-1.5 0.2-7.7-28.4-2.1 30.5-40.4-2.2c-18-105.7 12.8-130.7 12.8-130.7l54.8 11.1c24.9 42.2 19 91.3 19 91.3z"/>
			<g id="&lt;Group&gt;">
				<path id="&lt;Path&gt;" class="s27" d="m828.6 354.9c0 4.1-1.9 7.5-4.1 7.5-2.3 0-4.2-3.4-4.2-7.5 0-4.2 1.9-7.5 4.2-7.5 2.2 0 4.1 3.3 4.1 7.5z"/>
				<path id="&lt;Path&gt;" class="s26" d="m855.7 380.1q-0.3 0.2-0.5 0.3c-2.2 1.6-4.8 3.1-7.7 3.8-8.1 1.8-13.6 0.7-17.2-2.9q-0.1 0-0.1 0c-5-5.5-6.3-15.3-5.6-27 0.3-5.4 1.1-10.1 2.6-13.8 0 0 0-0.1 0-0.2 0.1-0.1 0.2-0.3 0.2-0.5 2.3-5.1 5.9-8.4 11.8-9.8q3.1-0.7 7-0.7c22.9-0.3 27 37.7 9.5 50.8z"/>
				<path id="&lt;Path&gt;" class="s15" d="m855.2 380.4c-2.2 1.6-4.8 2.8-7.7 3.4-8.1 1.9-13.6 0.5-17.2-3.2 3.9 0.9 9.3 1.2 14.5-1.2 3.3-1.5 6.9-0.7 10.4 1z"/>
				<path id="&lt;Path&gt;" class="s26" d="m857.5 401.1c1.4 6.5-7 9.2-7 9.2-13.9-5.9-16.4-13.3-16.4-13.3 11.5-6 8.2-23 8.2-23l2.3 1.2 16.5 3.2c0 0-4.6 8.8-5.2 10.8q0 0 0 0c-3.1 10.5 1.6 11.9 1.6 11.9z"/>
				<path id="&lt;Path&gt;" class="s7" d="m877.5 342.9c4.5 19-7 37.7-20.2 37.4-9.6-0.2-16.1-16.9-16.1-16.9-15.3-6.9-14-23-14-23 7-24.2 44.4-22.2 50.3 2.5z"/>
				<path id="&lt;Path&gt;" class="s26" d="m833.4 358.7c0.1-2.5 2.1-6.7 6-6.1 4 0.6 6.2 10.5-3.7 12.8-1.4 0.3-2.3-1.4-2.3-6.7z"/>
				<path id="&lt;Path&gt;" class="s7" d="m878.4 349.5c0 0-6.1-2.5-14.7-4.3-8.5-1.7-34.3 6.6-34.3 6.6-11.7-11.6-7.9-19 2-26.2 8.5-6.2 23.8-2.3 23.8-2.3 8.5-3.5 25 9.2 23.2 26.2z"/>
				<path id="&lt;Path&gt;" class="s7" d="m855.2 323.3c19.2-4.4 25 15.2 25.5 28.5 0.6 13.3 12.2 36.3-0.5 43.2-12.6 6.8-49-5.8-49-5.8 6.3-15.8 2.2-34.3 2.2-34.3 0 0 2.5-27.2 21.8-31.6z"/>
				<path id="&lt;Path&gt;" class="s27" d="m820.3 353.7h15.4"/>
			</g>
			<path id="&lt;Path&gt;" class="s15" d="m842.8 617.2l-1.5 0.2-7.7-28.4c0 0 16.6-28.4 11.4-43.2 0.7 1 18.7 27.6-2.2 71.4z"/>
			<g id="&lt;Group&gt;">
				<path id="&lt;Path&gt;" class="s7" d="m811.6 399.7c0 0 18.3-6.5 45.9 1.4 27.6 8 28.6 19.7 28.6 19.7 0 0-17.5 39.6-20.2 84.5l-71.9-2.7c0 0-8.6-63.3 17.6-102.9z"/>
				<path id="&lt;Path&gt;" class="s8" d="m886.1 420.8c0 0-17.5 39.6-20.2 84.5l-71.9-2.7c0 0-1.2-8.8-1.3-21.9-0.1-9.1 0.3-20.4 2-32.2 2.4-16.6 7.3-34.3 16.9-48.8 0 0 18.3-6.5 45.9 1.4 27.6 8 28.6 19.7 28.6 19.7z"/>
			</g>
			<path id="&lt;Path&gt;" class="s15" d="m810.6 451.2c0 0-3 18.3-17.9 29.5-0.1-9.1 0.3-20.4 2-32.2z"/>
			<path id="&lt;Path&gt;" class="s26" d="m723.2 408.7l-8-16c0 0 1.4 0.5-1.5 0-2.9-0.5-13.9-5.4-16-7.7-2-2.3-2-15.8 0-15.9 2.1 0 19.6 7.4 21.3 8.7 1.8 1.3 3.1 7.2 3.1 7.2l9.1 13.4z"/>
			<g id="&lt;Group&gt;">
				<path id="&lt;Path&gt;" class="s7" d="m810.6 451.2c0 0-41 22.2-60.5 16.6-19.6-5.7-34.6-62.9-34.6-62.9 2.9-13.8 10.8-16.2 10.8-16.2l29.3 39.9c30.8-19 56-28.9 56-28.9 10.9 21.7-1 51.5-1 51.5z"/>
				<path id="&lt;Path&gt;" class="s8" d="m810.6 451.2c0 0-41 22.2-60.5 16.6-19.6-5.7-34.6-62.9-34.6-62.9 2.9-13.8 10.8-16.2 10.8-16.2l29.3 39.9c30.8-19 56-28.9 56-28.9 10.9 21.7-1 51.5-1 51.5z"/>
			</g>
			<g id="&lt;Group&gt;">
				<path id="&lt;Path&gt;" class="s7" d="m882.6 408.7c3.4 4.1-5.7 37.8-25.9 36-20.2-1.9-26.6-47.5-26.6-47.5 23-0.3 49 7.4 52.5 11.5z"/>
				<path id="&lt;Path&gt;" class="s28" d="m882.6 408.7c3.4 4.1-5.7 37.8-25.9 36-20.2-1.9-26.6-47.5-26.6-47.5 23-0.3 49 7.4 52.5 11.5z"/>
			</g>
		</g>
	</g>
	<g id="Character 1">
		<g id="&lt;Group&gt; 81 ">
			<path id="&lt;Path&gt;" class="s29" d="m111.9 783h14.9l-1.3 34.3h-14.8z"/>
			<path id="&lt;Path&gt;" class="s7" d="m130.1 816.6c3.6 3.2 12.2 6.7 23.6 9.2 2.6 0.5 1.8 6.7-4.4 6.7-6.3 0-19.8-0.5-24.4-0.5-7.3 0-11.5 0.4-17.3 0.5q-0.3 0-0.5-0.1c-1.2-0.2-1.9-1.4-1.7-2.6l2.9-13.2c0.2-0.6 0.7-1 1.3-1h18c0.9 0 1.8 0.3 2.5 1z"/>
			<path id="&lt;Compound Path&gt;" fill-rule="evenodd" class="s10" d="m128.6 817.7c-0.1-0.1-0.2-0.2-0.3-0.3 0-0.2 0.1-0.3 0.2-0.4 0.5-0.3 5.3-3.2 7-2.4 0.3 0.2 0.6 0.6 0.6 1 0.1 0.7-0.2 1.4-0.8 1.9-0.8 0.5-1.8 0.8-2.8 0.7q-2 0-3.9-0.5zm1-0.5c1.7 0.6 3.6 0.5 5.3-0.3 0.4-0.3 0.5-0.8 0.5-1.2-0.1-0.3-0.2-0.5-0.3-0.5q-0.2-0.1-0.4-0.1c-1.8 0.4-3.5 1.1-5.1 2.1z"/>
			<path id="&lt;Compound Path&gt;" fill-rule="evenodd" class="s10" d="m128.5 817.7q-0.2-0.1-0.2-0.3c0.1-0.2 0.4-4.4 2.1-5.8 0.4-0.4 1-0.6 1.5-0.5 0.6 0 1 0.4 1.2 0.9 0.3 1.6-2.7 4.9-4.2 5.7h-0.2q-0.1 0-0.2 0zm2.4-5.7c-1.1 1.3-1.7 2.9-1.8 4.6 1.6-1.1 3.4-3.6 3.3-4.6-0.1-0.1-0.1-0.3-0.6-0.3h-0.1q-0.5 0-0.8 0.3z"/>
			<path id="&lt;Path&gt;" class="s15" d="m111.9 783h14.9l-0.7 17.7h-14.8z"/>
			<path id="&lt;Path&gt;" class="s29" d="m189.9 785.5l15.2 1.6-2.8 33-15.3-1.7z"/>
			<path id="&lt;Path&gt;" class="s7" d="m206.4 816.1c3.6 3.3 12.2 6.7 23.6 9.2 2.6 0.6 1.8 6.7-4.4 6.7-6.3 0-19.8-0.5-24.3-0.5-7.4 0-11.6 0.4-17.4 0.5q-0.3 0-0.5-0.1c-1.2-0.2-1.9-1.4-1.7-2.5l2.9-13.2c0.2-0.6 0.7-1 1.3-1.1h18c0.9 0 1.8 0.4 2.5 1z"/>
			<path id="&lt;Compound Path&gt;" fill-rule="evenodd" class="s10" d="m204.9 817.2c-0.1 0-0.2-0.2-0.3-0.3 0-0.1 0.1-0.3 0.2-0.3 0.5-0.4 5.3-3.3 7-2.5 0.3 0.2 0.6 0.6 0.6 1 0.1 0.7-0.2 1.4-0.8 1.9-0.8 0.6-1.8 0.8-2.8 0.7q-2 0-3.9-0.5zm1-0.5c1.8 0.6 3.6 0.5 5.3-0.3 0.4-0.3 0.5-0.7 0.5-1.2 0-0.3-0.2-0.4-0.3-0.4q-0.2-0.1-0.4-0.1c-1.8 0.3-3.5 1-5.1 2z"/>
			<path id="&lt;Compound Path&gt;" fill-rule="evenodd" class="s10" d="m204.8 817.3q-0.2-0.1-0.2-0.3c0.1-0.3 0.4-4.5 2.1-5.9 0.4-0.4 1-0.5 1.5-0.5 0.6 0 1 0.4 1.2 1 0.3 1.5-2.7 4.8-4.2 5.6h-0.2q-0.1 0.1-0.2 0.1zm2.4-5.8c-1.1 1.3-1.7 3-1.8 4.6 1.6-1.1 3.4-3.6 3.3-4.5-0.1-0.1-0.1-0.4-0.6-0.4h-0.1q-0.5 0-0.8 0.3z"/>
			<path id="&lt;Path&gt;" class="s15" d="m189.9 785.5l15.2 1.6-1.5 17-15.2-1.6z"/>
			<path id="&lt;Path&gt;" class="s7" d="m118 482.1h78.7c7.4 40.8 30.8 185.2 14 313.9l-26.6-3.3c0 0 2.5-170.8-21-234-2.7 33.8-5.9 69.8-8.7 88.9-6.8 47.1-21.5 150.1-21.5 150.1h-27.1c0 0 5.6-98.6 8.1-144.8 2.8-50.3 4-160.5 4.1-170.8z"/>
			<g id="&lt;Group&gt;">
				<path id="&lt;Path&gt;" class="s10" d="m213.8 802.2l-33-4.9 1.1-9.1 34.2 4.5z"/>
			</g>
			<g id="&lt;Group&gt;">
				<path id="&lt;Path&gt;" class="s10" d="m136.2 797.9h-32v-9.6l33.2-0.6z"/>
			</g>
			<path id="&lt;Path&gt;" class="s15" d="m165.3 530.8c0 0 8.8 31.9 6.6 61.9-2.5-13-5.3-24.7-8.8-34z"/>
			<path id="&lt;Path&gt;" class="s10" d="m202.1 505.7l1.2 6.5c-34.3 0.2-89.3-6.9-89.3-6.9l1.8-9.5z"/>
			<path id="&lt;Path&gt;" class="s29" d="m253 410.6c0 0 11.2 35.7 12.7 36.5 1.4 0.8 31-27.5 32-29.2 1-1.6 26.8-11.3 29-11.3 2.2 0 11.2 20.9 9.9 22.9-1.3 2.1-31 2.3-31 2.3 0 0-33.1 49.5-46.1 45.6-13-3.9-32-63.9-32-63.9z"/>
			<path id="&lt;Path&gt;" class="s29" d="m309.8 428.3q0.1 0.1 0.3 0.2-0.3 0.1-0.7 0.2 0.2-0.2 0.4-0.4z"/>
			<g id="&lt;Group&gt;">
				<path id="&lt;Path&gt;" class="s10" d="m245.4 372.5c4.4 4.8 17.1 52 17.1 52l-30.4 10.5-2.3-4.1-10.8-20-2.3-4.3z"/>
				<path id="&lt;Path&gt;" class="s9" d="m245.4 372.5c4.4 4.8 17.1 52 17.1 52l-30.4 10.5-2.3-4.1-10.8-20-2.3-4.3z"/>
			</g>
			<path id="&lt;Path&gt;" class="s15" d="m234.6 399.7c0 0 1.9 18-4.8 31.2l-10.8-20z"/>
			<g id="&lt;Group&gt;">
				<path id="&lt;Path&gt;" class="s10" d="m214.4 450.9c-10.8 22.9-11.1 56.8-11.1 56.8-47.7 3.2-89.3-9.7-89.3-9.7 0 0 19.8-122.3 35.7-136.5 10.9-9.7 20.2-12.6 50-11.2 29.8 1.4 45.7 22.2 45.7 22.2 0 0-10.1 33.9-31 78.4z"/>
				<path id="&lt;Compound Path&gt;" fill-rule="evenodd" class="s9" d="m115 491.9c1-5.6 2.6-14.7 4.6-25.5 1.4-7.5 3.1-15.8 4.9-24.5q1-5.1 2.1-10.3 0.8-3.4 1.6-6.8c1.8-8 3.7-15.9 5.6-23.4q0.7-2.4 1.4-4.8c2.9-10.7 6-20 9-26.5 1.9-4 3.7-7 5.5-8.5 2.6-2.4 5.1-4.3 7.8-5.9 8.7-5 19.5-6.5 42.2-5.4q0.5 0 1 0c21.5 1.4 35.6 12.7 41.5 18.6 2.2 2.2 3.2 3.6 3.2 3.6 0 0-0.6 2-1.8 5.7-0.9 2.8-2.2 6.6-3.8 11.1-1.5 4.1-3.2 8.9-5.3 14.3-2.8 7.4-6.2 15.9-10.2 25.2-1.9 4.4-4 9-6.1 13.8q-1.9 4.1-3.8 8.3c-2.4 5-4.3 10.6-5.7 16.2q-0.9 3.5-1.7 7c-0.8 4.4-1.5 8.6-2.1 12.6-0.5 3.8-0.8 7.4-1.1 10.4-0.5 6.5-0.5 10.7-0.5 10.7-47.7 3.1-89.3-9.8-89.3-9.8 0 0 0.4-2.2 1-6.1zm71.9-137.6c0.5 2 5.3 7.9 11.9 12.2 3.5 2.3 7.5 4.2 11.6 4.9 12 1.8 16.6-5.9 17-9 0.3-3-11.9-9.4-20-10.5-1.8-0.2-3.9-0.4-6-0.5-7.3-0.2-15 0.7-14.5 2.9z"/>
				<path id="&lt;Path&gt;" class="s10" d="m222.5 399.7c-4 16.2-23.1 67.7-23.1 67.7l-42.6-5.4c3.1-31.7 19-69.8 19-69.8 12.6 4.1 46.7 7.5 46.7 7.5z"/>
				<path id="&lt;Path&gt;" class="s9" d="m214.1 401.2l6 0.6-4.4 3.4z"/>
			</g>
			<path id="&lt;Path&gt;" class="s29" d="m211.3 319.7l11.5 24.6c-0.9 1.1-1.8 2.3-2.5 3.4-1.4 2.2-2.5 4.5-2.9 6.9-0.8 4 6.4 7.6 6.4 7.6 0 0-2.6 6.9-11.4 6.1-6.3-0.5-18.2-4.7-21.5-13.9 9.9-3.4 17.8-24 20.4-34.7z"/>
			<path id="&lt;Path&gt;" class="s15" d="m220.3 347.7c-1.4 2.2-2.5 4.5-2.9 6.9-4.3-3.2-12.1-11.5-6.6-23.5z"/>
			<g id="&lt;Group&gt;">
				<g id="&lt;Group&gt;">
					<path id="&lt;Path&gt;" class="s29" d="m249.4 299.1c0 0 3.6 20.3-7 28.5-10.6 8.1-11.6-29.8-11.6-29.8z"/>
					<path id="&lt;Path&gt;" class="s23" d="m249.4 299.1c0 0 3.6 20.3-7 28.5-10.6 8.1-11.6-29.8-11.6-29.8z"/>
				</g>
				<path id="&lt;Path&gt;" class="s29" d="m207.8 313.1c0.2-3.2 1.1-6.2 2.7-8.9 5.7-9.6 16.5-6.2 27.5-7.1 13.5-1.2 12.3 29.6 7.4 42.3q-0.5 1-1 1.9c-2.5 4.9-6.7 8.3-11.5 10-7.3 2.5-16 0.8-21.4-6.6-6.3-8.5-4.9-17-3.7-31.6z"/>
				<path id="&lt;Path&gt;" class="s7" d="m230.9 318.3c0.8 0.1 1.3 1.2 1.1 2.3-0.1 1.2-0.9 2.1-1.7 2-0.8-0.1-1.3-1.2-1.1-2.3 0.2-1.2 1-2.1 1.7-2z"/>
				<path id="&lt;Path&gt;" class="s7" d="m244.3 320.2c0.8 0.1 1.3 1.2 1.1 2.3-0.2 1.2-0.9 2.1-1.7 2-0.8-0.1-1.3-1.2-1.1-2.3 0.2-1.2 0.9-2.1 1.7-2z"/>
				<path id="&lt;Path&gt;" class="s30" d="m238.3 322.1c0.9 3.9 2.3 7.5 4.2 11-1.8 0.9-4 1-5.9 0.2z"/>
				<path id="&lt;Path&gt;" class="s7" d="m225.4 315.2q0 0 0 0c-0.3-0.3-0.3-0.8 0-1 1.6-1.7 3.8-2.4 6.1-2.1q0 0 0 0c0.4 0.1 0.6 0.5 0.5 0.8-0.1 0.4-0.4 0.7-0.8 0.6-1.8-0.2-3.6 0.4-4.8 1.7-0.2 0.1-0.5 0.2-0.7 0.1q-0.2 0-0.3-0.1z"/>
				<path id="&lt;Path&gt;" class="s7" d="m248.5 318c-0.5-1.7-1.8-3.1-3.4-3.7-0.4-0.1-0.6-0.5-0.5-0.9 0.1-0.3 0.4-0.5 0.8-0.4 2.2 0.7 3.8 2.4 4.5 4.6q0 0 0 0c0.1 0.3-0.1 0.7-0.5 0.8q-0.2 0.1-0.4 0-0.3-0.1-0.5-0.4z"/>
				<path id="&lt;Path&gt;" class="s27" d="m227.4 333.8c0 0 2.4 5.3 7.4 5.1"/>
				<g id="&lt;Group&gt;">
					<path id="&lt;Path&gt;" class="s29" d="m221 296.5l0.2 6.5c-2.2 0.9-3.7 3.2-3 5.8 1.6 5.6-2.3 13.7-6.8 16.7 0 0 0.1-2.4-1.9-2-2 0.4-2.6 12.6 0.7 18.8 0 0-7.1-6.5-9.2-19.6-1.9-12.2-1.6-19.9 0.1-25.7z"/>
					<path id="&lt;Path&gt;" class="s23" d="m221 296.5l0.2 6.5c-2.2 0.9-3.7 3.2-3 5.8 1.6 5.6-2.3 13.7-6.8 16.7 0 0 0.1-2.4-1.9-2-2 0.4-2.6 12.6 0.7 18.8 0 0-7.1-6.5-9.2-19.6-1.9-12.2-1.6-19.9 0.1-25.7z"/>
				</g>
				<path id="&lt;Path&gt;" class="s7" d="m194.4 296.5c-0.2-4.7 8.9-5.6 8.9-5.6 0 0-0.3-9.1 9.3-11.4 7.7-1.8 14.4 4.6 14.4 4.6 0 0 5.3-4.9 10.7-2.9 5.3 1.9 7.7 8.5 7.7 8.5 0 0 8.1 1 8.7 6.8 0.6 5.8-4.2 9.9-4.2 9.9 0 0-8.6-7.4-28.7-3.4-13 2.6-21.4 1.3-21.4 1.3 0 0-5.3-3.2-5.4-7.8z"/>
				<path id="&lt;Path&gt;" class="s27" d="m237.3 321.2c0 4.2-2.9 7.6-6.5 7.6-3.6 0-6.6-3.4-6.6-7.6 0-4.1 3-7.5 6.6-7.5 3.6 0 6.5 3.4 6.5 7.5z"/>
				<path id="&lt;Path&gt;" class="s27" d="m253.8 322.4c0 4.1-3 7.5-6.6 7.5-3.6 0-6.5-3.4-6.5-7.5 0-4.2 2.9-7.6 6.5-7.6 3.6 0 6.6 3.4 6.6 7.6z"/>
				<path id="&lt;Path&gt;" class="s27" d="m237.3 322.1c0 0 2.1-1.3 3.4 0.3"/>
				<path id="&lt;Path&gt;" class="s27" d="m208.1 321.2l0.5-0.4c1.2-0.9 2.7-1.3 4.2-1.1l11.4 1.5"/>
				<path id="&lt;Path&gt;" class="s29" d="m205.8 315.5c4.8 0.3 7.5 6.5 7.9 10.6 0.5 4.6-2.7 8.3-7 6.1-3.3-1.7-5.8-4.6-7-8.1-1.3-4.3 1.3-8.8 6.1-8.6z"/>
			</g>
			<path id="&lt;Path&gt;" class="s15" d="m128.2 424.8c1.8-8 3.7-15.9 5.6-23.4q0.7-2.4 1.4-4.8l14.5-11.7 10.7 6.5c0 0-14.9 32.3-33.8 40.2q0.8-3.4 1.6-6.8z"/>
			<path id="&lt;Path&gt;" class="s10" d="m230.6 435l32.6-11.9 0.9 2.7-32.6 11.6z"/>
			<g id="&lt;Group&gt;">
				<path id="&lt;Path&gt;" class="s10" d="m137 575.5l-94.4-14.9 9.2-58.2 94.4 14.9z"/>
				<g id="&lt;Group&gt;">
					<path id="&lt;Path&gt;" class="s31" d="m81.2 549.8l-15.1-15.3 19.1-10"/>
					<path id="&lt;Path&gt;" class="s31" d="m107.6 528.1l15.1 15.3-19.1 10"/>
					<path id="&lt;Path&gt;" class="s31" d="m87.9 550.9l13-23.9"/>
				</g>
			</g>
			<path id="&lt;Path&gt;" class="s29" d="m146.5 398.6c0 0-25.9 19.7-32.2 28.8-6.3 9.2-16.3 65.9-16.3 65.9l8.6 8.4c0 0-3.4 24.5-5.8 26.9-2.4 2.4-18.8-7.7-19.1-8.7-0.3-1-0.1-22.6 0-24.3 0.2-1.6 2.2-2.3 2.2-2.3 0 0 9.2-77 14.1-83.9 4.8-6.9 40.4-42.6 40.4-42.6z"/>
			<g id="&lt;Group&gt;">
				<path id="&lt;Path&gt;" class="s10" d="m165.8 352.4c5.1 11 1.2 34.1-8.4 42.2-14.4 12.4-31.9 23-31.9 23l-17.5-22.9c0 0 18.6-18.1 29.8-28.5 13.7-12.7 28-13.8 28-13.8z"/>
				<path id="&lt;Path&gt;" class="s9" d="m165.8 352.4c5.1 11 1.2 34.1-8.4 42.2-14.4 12.4-31.9 23-31.9 23l-17.5-22.9c0 0 18.6-18.1 29.8-28.5 13.7-12.7 28-13.8 28-13.8z"/>
			</g>
			<path id="&lt;Path&gt;" class="s10" d="m126.6 418.2l-2.5 1.8-18.3-23.8 2.2-2.9z"/>
		</g>
	</g>
</svg>