<svg xmlns="http://www.w3.org/2000/svg" xmlns:xlink="http://www.w3.org/1999/xlink" version="1.1" width="1000" height="1000" viewBox="0 0 1000 1000" xml:space="preserve">
<desc>Created with Fabric.js 3.5.0</desc>
<defs>
</defs>
<rect x="0" y="0" width="100%" height="100%" fill="#ffffff"/>
<g transform="matrix(1.7756 0 0 1.7756 500.0097 500.0096)" id="852062">
<path style="stroke: none; stroke-width: 1; stroke-dasharray: none; stroke-linecap: butt; stroke-dashoffset: 0; stroke-linejoin: miter; stroke-miterlimit: 4; is-custom-font: none; font-file-url: none; fill: rgb(26,41,73); fill-rule: nonzero; opacity: 1;" vector-effect="non-scaling-stroke" transform=" translate(-256, -255.9991)" d="M 256 417.1 c -16.38 0 -32.88 -4.1 -46.88 -15.12 L 0 250.9 v 213.1 C 0 490.5 21.5 512 48 512 h 416 c 26.5 0 48 -21.5 48 -47.1 V 250.9 l -209.1 151.1 C 288.9 412 272.4 417.1 256 417.1 z M 493.6 163 C 484.8 156 476.4 149.5 464 140.1 v -44.12 c 0 -26.5 -21.5 -48 -48 -48 l -77.5 0.0016 c -3.125 -2.25 -5.875 -4.25 -9.125 -6.5 C 312.6 29.13 279.3 -0.3732 256 0.0018 C 232.8 -0.3732 199.4 29.13 182.6 41.5 c -3.25 2.25 -6 4.25 -9.125 6.5 L 96 48 c -26.5 0 -48 21.5 -48 48 v 44.12 C 35.63 149.5 27.25 156 18.38 163 C 6.75 172 0 186 0 200.8 v 10.62 l 96 69.37 V 96 h 320 v 184.7 l 96 -69.37 V 200.8 C 512 186 505.3 172 493.6 163 z M 176 255.1 h 160 c 8.836 0 16 -7.164 16 -15.1 c 0 -8.838 -7.164 -16 -16 -16 h -160 c -8.836 0 -16 7.162 -16 16 C 160 248.8 167.2 255.1 176 255.1 z M 176 191.1 h 160 c 8.836 0 16 -7.164 16 -16 c 0 -8.838 -7.164 -15.1 -16 -15.1 h -160 c -8.836 0 -16 7.162 -16 15.1 C 160 184.8 167.2 191.1 176 191.1 z" stroke-linecap="round"/>
</g>
</svg>