<svg xmlns="http://www.w3.org/2000/svg" xmlns:xlink="http://www.w3.org/1999/xlink" version="1.1" width="1000" height="1000" viewBox="0 0 1000 1000" xml:space="preserve">
<desc>Created with Fabric.js 3.5.0</desc>
<defs>
</defs>
<rect x="0" y="0" width="100%" height="100%" fill="#ffffff"/>
<g transform="matrix(1.5783 0 0 1.5783 499.5049 499.5043)" id="748416">
<path style="stroke: none; stroke-width: 0; stroke-dasharray: none; stroke-linecap: butt; stroke-dashoffset: 0; stroke-linejoin: miter; stroke-miterlimit: 4; is-custom-font: none; font-file-url: none; fill: rgb(26,41,73); fill-rule: nonzero; opacity: 1;" vector-effect="non-scaling-stroke" transform=" translate(-288, -252.15)" d="M 408 120 C 408 174.6 334.9 271.9 302.8 311.1 C 295.1 321.6 280.9 321.6 273.2 311.1 C 241.1 271.9 168 174.6 168 120 C 168 53.73 221.7 0 288 0 C 354.3 0 408 53.73 408 120 z M 288 152 C 310.1 152 328 134.1 328 112 C 328 89.91 310.1 72 288 72 C 265.9 72 248 89.91 248 112 C 248 134.1 265.9 152 288 152 z M 425.6 179.8 C 426.1 178.6 426.6 177.4 427.1 176.1 L 543.1 129.7 C 558.9 123.4 576 135 576 152 V 422.8 C 576 432.6 570 441.4 560.9 445.1 L 416 503 V 200.4 C 419.5 193.5 422.7 186.7 425.6 179.8 z M 150.4 179.8 C 153.3 186.7 156.5 193.5 160 200.4 V 451.8 L 32.91 502.7 C 17.15 508.1 0 497.4 0 480.4 V 209.6 C 0 199.8 5.975 190.1 15.09 187.3 L 137.6 138.3 C 140 152.5 144.9 166.6 150.4 179.8 H 150.4 z M 327.8 331.1 C 341.7 314.6 363.5 286.3 384 255 V 504.3 L 192 449.4 V 255 C 212.5 286.3 234.3 314.6 248.2 331.1 C 268.7 357.6 307.3 357.6 327.8 331.1 L 327.8 331.1 z" stroke-linecap="round"/>
</g>
</svg>