<svg version="1.2" xmlns="http://www.w3.org/2000/svg" viewBox="0 0 407 364" width="407" height="364"><style>.a{fill:#ebebeb}.b{fill:#f0f0f0}.c{fill:#e0e0e0}.d{fill:#f5f5f5}.e{fill:#407bff}.f{fill:#fff}.g{fill:#263238}.h{opacity:.9;fill:#fff}.i{opacity:.1}.j{opacity:.4;fill:#fff}.k{opacity:.7;fill:#fff}.l{fill:#ebb376}.m{opacity:.2}.n{opacity:.6;fill:#fff}.o{fill:#d58745}</style><path class="a" d="m-46 307.4h500v0.3h-500z"/><path class="a" d="m370.8 323.5h33.1v0.2h-33.1z"/><path class="a" d="m276.5 326.2h8.7v0.3h-8.7z"/><path class="a" d="m350.6 314.2h19.2v0.3h-19.2z"/><path class="a" d="m6.5 315.9h43.2v0.2h-43.2z"/><path class="a" d="m58.6 315.9h6.3v0.2h-6.3z"/><path class="a" d="m85.5 320.1h93.7v0.3h-93.7z"/><path fill-rule="evenodd" class="a" d="m191 262.8h-193.1q-1.1 0-2.2-0.4-1-0.5-1.8-1.3-0.8-0.8-1.3-1.8-0.4-1.1-0.4-2.2v-271.4q0-1.2 0.5-2.2 0.4-1 1.2-1.8 0.8-0.8 1.8-1.3 1.1-0.4 2.2-0.4h193.1q1.1 0 2.2 0.4 1 0.5 1.8 1.3 0.8 0.8 1.3 1.8 0.4 1.1 0.4 2.2v271.4q0 1.1-0.4 2.2-0.5 1-1.3 1.8-0.8 0.8-1.8 1.3-1.1 0.4-2.2 0.4zm-193.1-282.6q-1.1 0-2.1 0.4-1 0.4-1.7 1.2-0.8 0.8-1.2 1.8-0.4 1-0.4 2.1v271.4q0 1.1 0.4 2.1 0.4 1 1.2 1.7 0.7 0.8 1.7 1.2 1 0.4 2.1 0.5l193.1-0.1q1.1 0 2.1-0.4 1-0.4 1.8-1.2 0.7-0.7 1.1-1.7 0.5-1 0.5-2.1v-271.4q0-1.1-0.5-2.1-0.4-1-1.1-1.8-0.8-0.8-1.8-1.2-1-0.4-2.1-0.4z"/><path fill-rule="evenodd" class="a" d="m407.3 262.8h-193.1q-1.1 0-2.2-0.4-1-0.5-1.8-1.3-0.8-0.8-1.3-1.8-0.4-1.1-0.4-2.2v-271.4q0-1.2 0.5-2.2 0.4-1 1.2-1.8 0.8-0.8 1.8-1.3 1.1-0.4 2.2-0.4h193.1q1.1 0 2.2 0.4 1 0.5 1.8 1.3 0.8 0.8 1.3 1.8 0.4 1 0.4 2.2v271.4q0 1.1-0.4 2.2-0.5 1-1.3 1.8-0.8 0.8-1.8 1.3-1.1 0.4-2.2 0.4zm-193.1-282.6q-1.1 0-2.1 0.4-1 0.4-1.7 1.2-0.8 0.8-1.2 1.8-0.4 1-0.5 2.1v271.4q0.1 1.1 0.5 2.1 0.4 1 1.2 1.7 0.7 0.8 1.7 1.2 1 0.4 2.1 0.4h193.1q1.1 0 2.1-0.4 1-0.4 1.8-1.2 0.7-0.7 1.2-1.7 0.4-1 0.4-2.1v-271.4q0-1.1-0.4-2.1-0.5-1-1.2-1.8-0.8-0.8-1.8-1.2-1-0.4-2.1-0.4z"/><path fill-rule="evenodd" class="b" d="m107.5 209.3q-1.3-4.2-2.3-8.4-0.9-4.3-1.4-8.7-0.5-4.3-0.6-8.7l-17.3-4.9 6.3-34.3 17.9 1.6q1.7-4 3.7-7.9 2.1-3.9 4.5-7.5 2.3-3.7 5.1-7.1 2.7-3.5 5.7-6.6l-8.8-15.8 28.7-19.7 11.7 13.9q4-1.7 8.2-3 4.1-1.4 8.4-2.3 4.3-0.9 8.6-1.4 4.4-0.5 8.8-0.6l4.9-17.3 34.2 6.3-1.6 17.9q4 1.7 7.9 3.7 3.9 2 7.6 4.4 3.6 2.4 7.1 5.1 3.4 2.8 6.6 5.8l15.7-8.8 19.8 28.7-13.9 11.6q1.7 4 3 8.2 1.4 4.1 2.3 8.4 0.9 4.3 1.4 8.6 0.5 4.4 0.6 8.8l17.3 4.9-6.3 34.2-17.9-1.6q-1.7 4.1-3.7 8-2 3.8-4.4 7.5-2.4 3.7-5.1 7.1-2.8 3.4-5.8 6.6l8.8 15.7-28.7 19.8-11.6-13.9q-4 1.7-8.2 3-4.2 1.3-8.4 2.3-4.3 0.9-8.7 1.4-4.3 0.5-8.7 0.6l-4.9 17.3-34.3-6.3 1.6-17.9q-4-1.7-7.9-3.7-3.9-2.1-7.5-4.4-3.7-2.4-7.1-5.2-3.5-2.7-6.6-5.7l-15.8 8.8-19.7-28.7 13.8-11.6q-1.7-4-3-8.2zm43.2-18.1c1.3 6 3.7 11.8 7.2 16.9 3.6 5.1 8 9.4 13.2 12.8 5.2 3.4 11 5.7 17.1 6.8 18.7 3.5 37.7-4.7 48.1-20.7 10.4-16 10.1-36.7-0.7-52.4-10.8-15.7-30-23.3-48.7-19.3-18.6 3.9-33 18.7-36.5 37.5-1.1 6.1-1 12.3 0.3 18.4z"/><path fill-rule="evenodd" class="b" d="m341.9 194.2q-1.3-0.6-2.5-1.2-1.2-0.6-2.4-1.4-1.2-0.7-2.2-1.6-1.1-0.9-2.1-1.8l-5 2.8-6.3-9.1 4.4-3.7q-0.5-1.2-0.9-2.6-0.5-1.3-0.7-2.6-0.3-1.4-0.5-2.8-0.2-1.3-0.2-2.7l-5.5-1.6 2-10.8 5.7 0.5q0.5-1.3 1.2-2.5 0.6-1.2 1.4-2.4 0.7-1.2 1.6-2.2 0.9-1.1 1.8-2.1l-2.8-5 9.1-6.3 3.6 4.4q1.3-0.5 2.6-0.9 1.3-0.4 2.7-0.7 1.4-0.3 2.7-0.5 1.4-0.2 2.8-0.2l1.5-5.5 10.9 2-0.5 5.7q1.2 0.5 2.5 1.2 1.2 0.6 2.4 1.4 1.1 0.7 2.2 1.6 1.1 0.8 2.1 1.8l5-2.8 6.2 9.1-4.4 3.6q0.6 1.3 1 2.6 0.4 1.4 0.7 2.7 0.3 1.4 0.5 2.7 0.1 1.4 0.2 2.8l5.4 1.6-2 10.8-5.6-0.5q-0.6 1.3-1.2 2.5-0.6 1.2-1.4 2.4-0.8 1.1-1.6 2.2-0.9 1.1-1.8 2.1l2.7 5-9 6.2-3.7-4.4q-1.3 0.6-2.6 1-1.3 0.4-2.7 0.7-1.3 0.3-2.7 0.5-1.4 0.1-2.7 0.2l-1.6 5.4-10.8-2zm-3.4-24.3c0.4 2 1.2 3.8 2.3 5.4 1.1 1.6 2.5 3 4.1 4 1.7 1.1 3.5 1.8 5.4 2.2 6 1.1 12-1.5 15.3-6.6 3.2-5 3.1-11.5-0.3-16.5-3.4-5-9.5-7.4-15.4-6.1-5.9 1.2-10.4 5.9-11.5 11.8-0.4 2-0.3 3.9 0.1 5.8z"/><path fill-rule="evenodd" class="b" d="m38.1 226.4q-1-0.4-1.9-0.9-1-0.5-1.9-1.1-0.8-0.6-1.7-1.2-0.8-0.7-1.5-1.4l-3.8 2.1-4.8-6.9 3.3-2.8q-0.4-1-0.7-2-0.3-1-0.5-2-0.2-1-0.4-2.1-0.1-1-0.1-2.1l-4.1-1.2 1.5-8.2 4.3 0.4q0.4-1 0.9-1.9 0.5-1 1-1.9 0.6-0.8 1.3-1.7 0.6-0.8 1.4-1.5l-2.2-3.8 6.9-4.8 2.8 3.3q1-0.4 2-0.7 1-0.3 2-0.5 1.1-0.2 2.1-0.4 1.1-0.1 2.1-0.1l1.2-4.2 8.3 1.5-0.4 4.4q0.9 0.4 1.9 0.8 0.9 0.5 1.8 1.1 0.9 0.6 1.7 1.2 0.8 0.7 1.6 1.4l3.8-2.1 4.7 6.9-3.3 2.8q0.4 1 0.7 2 0.3 1 0.5 2 0.3 1 0.4 2.1 0.1 1 0.1 2.1l4.2 1.1-1.5 8.3-4.3-0.4q-0.4 1-0.9 1.9-0.5 0.9-1.1 1.8-0.6 0.9-1.2 1.7-0.7 0.8-1.4 1.6l2.1 3.8-6.9 4.8-2.8-3.4q-1 0.4-2 0.8-1 0.3-2 0.5-1 0.2-2.1 0.3-1 0.2-2.1 0.2l-1.2 4.2-8.2-1.6zm-2.5-18.5c0.3 1.5 0.9 2.9 1.7 4.1 0.9 1.2 1.9 2.3 3.2 3.1 1.2 0.8 2.6 1.3 4.1 1.6 4.5 0.8 9.1-1.1 11.6-5 2.5-3.8 2.4-8.8-0.2-12.6-2.6-3.7-7.2-5.6-11.7-4.6-4.5 0.9-8 4.5-8.8 9-0.3 1.5-0.2 3 0.1 4.4z"/><path fill-rule="evenodd" class="b" d="m185.2 43.7q-0.8-0.3-1.5-0.6-0.7-0.4-1.4-0.8-0.6-0.5-1.3-1-0.6-0.5-1.1-1l-2.9 1.6-3.6-5.2 2.5-2.2q-0.3-0.7-0.5-1.4-0.3-0.8-0.5-1.6-0.1-0.8-0.2-1.6-0.1-0.8-0.1-1.6l-3.2-0.9 1.2-6.2 3.2 0.3q0.3-0.7 0.7-1.4 0.4-0.7 0.8-1.4 0.5-0.7 0.9-1.3 0.5-0.6 1.1-1.2l-1.6-2.9 5.2-3.6 2.1 2.5q0.8-0.3 1.5-0.5 0.8-0.2 1.6-0.4 0.7-0.2 1.5-0.3 0.8-0.1 1.6-0.1l0.9-3.1 6.3 1.1-0.3 3.3q0.7 0.3 1.4 0.7 0.7 0.3 1.4 0.8 0.7 0.4 1.3 0.9 0.6 0.5 1.2 1l2.9-1.6 3.6 5.3-2.6 2.1q0.3 0.7 0.6 1.5 0.2 0.7 0.4 1.5 0.2 0.8 0.2 1.6 0.1 0.8 0.2 1.6l3.1 0.9-1.1 6.2-3.3-0.3q-0.3 0.7-0.7 1.5-0.3 0.7-0.8 1.3-0.4 0.7-0.9 1.3-0.5 0.7-1.1 1.2l1.6 2.9-5.2 3.6-2.1-2.5q-0.7 0.3-1.5 0.5-0.7 0.3-1.5 0.4-0.8 0.2-1.6 0.3-0.8 0.1-1.6 0.1l-0.9 3.2-6.2-1.2zm-2-17.3c-0.3 1.1-0.2 2.2 0 3.3 0.2 1.1 0.7 2.2 1.3 3.1 0.7 0.9 1.5 1.7 2.4 2.3 1 0.6 2 1 3.1 1.3 3.4 0.6 6.9-0.9 8.8-3.8 1.9-2.9 1.8-6.7-0.1-9.6-2-2.8-5.5-4.2-8.9-3.5-3.4 0.7-6 3.4-6.6 6.9z"/><path fill-rule="evenodd" class="b" d="m288.7 95q-0.5-0.2-1-0.4-0.5-0.3-0.9-0.6-0.4-0.3-0.9-0.6-0.4-0.3-0.8-0.7l-1.9 1.1-2.4-3.5 1.7-1.4q-0.2-0.5-0.4-1-0.1-0.5-0.2-1-0.1-0.6-0.2-1.1-0.1-0.5-0.1-1.1l-2.1-0.6 0.8-4.1 2.2 0.2q0.2-0.5 0.4-1 0.3-0.5 0.5-0.9 0.3-0.4 0.7-0.9 0.3-0.4 0.7-0.8l-1.1-1.9 3.5-2.4 1.4 1.7q0.5-0.2 1-0.4 0.5-0.1 1-0.2 0.5-0.1 1.1-0.2 0.5-0.1 1-0.1l0.6-2.1 4.2 0.8-0.2 2.2q0.5 0.2 1 0.4 0.4 0.3 0.9 0.5 0.4 0.3 0.8 0.7 0.5 0.3 0.8 0.7l2-1.1 2.4 3.5-1.7 1.4q0.2 0.5 0.3 1 0.2 0.5 0.3 1 0.1 0.5 0.2 1.1 0 0.5 0.1 1l2.1 0.6-0.8 4.2-2.2-0.2q-0.2 0.5-0.4 1-0.3 0.4-0.6 0.9-0.3 0.4-0.6 0.8-0.3 0.4-0.7 0.8l1.1 1.9-3.5 2.5-1.4-1.7q-0.5 0.2-1 0.3-0.5 0.2-1 0.3-0.6 0.1-1.1 0.2-0.5 0-1.1 0l-0.5 2.1-4.2-0.7zm-1.3-9.3q0.2 1.1 0.9 2 0.6 0.9 1.6 1.6 0.9 0.6 2.1 0.8c2.2 0.4 4.5-0.6 5.8-2.5 1.3-2 1.2-4.5-0.1-6.4-1.3-1.9-3.6-2.8-5.9-2.3-2.3 0.4-4 2.2-4.4 4.5q-0.2 1.1 0 2.3z"/><path fill-rule="evenodd" class="b" d="m97 44.9q-0.5-0.2-1-0.5-0.5-0.2-0.9-0.5-0.4-0.3-0.9-0.6-0.4-0.3-0.8-0.7l-1.9 1.1-2.4-3.5 1.7-1.4q-0.2-0.5-0.4-1-0.1-0.5-0.2-1.1-0.1-0.5-0.2-1-0.1-0.5-0.1-1.1l-2.1-0.6 0.8-4.1 2.2 0.2q0.2-0.5 0.4-1 0.3-0.5 0.5-0.9 0.3-0.5 0.7-0.9 0.3-0.4 0.7-0.8l-1.1-1.9 3.5-2.4 1.4 1.7q0.5-0.2 1-0.4 0.5-0.1 1-0.3 0.5-0.1 1-0.1 0.6-0.1 1.1-0.1l0.6-2.1 4.1 0.8-0.1 2.2q0.4 0.1 0.9 0.4 0.5 0.2 0.9 0.5 0.5 0.3 0.9 0.7 0.4 0.3 0.8 0.6l1.9-1 2.4 3.5-1.7 1.4q0.2 0.5 0.4 1 0.2 0.5 0.3 1 0.1 0.5 0.1 1 0.1 0.6 0.1 1.1l2.1 0.6-0.8 4.2-2.1-0.2q-0.2 0.5-0.5 0.9-0.2 0.5-0.5 1-0.3 0.4-0.6 0.8-0.4 0.4-0.7 0.8l1 1.9-3.5 2.4-1.4-1.7q-0.5 0.3-1 0.4-0.5 0.2-1 0.3-0.5 0.1-1 0.2-0.6 0-1.1 0l-0.6 2.1-4.1-0.7zm-1.4-9.4q0.3 1.2 0.9 2.1 0.7 0.9 1.6 1.6 1 0.6 2.1 0.8c2.3 0.4 4.6-0.6 5.8-2.5 1.3-2 1.3-4.5-0.1-6.4-1.3-1.9-3.6-2.8-5.9-2.4-2.2 0.5-4 2.3-4.4 4.6q-0.2 1.1 0 2.2z"/><path fill-rule="evenodd" class="b" d="m278 267.7l1.4-7.2 3.8 0.3q0.3-0.8 0.7-1.6 0.5-0.9 1-1.6 0.5-0.8 1-1.5 0.6-0.8 1.3-1.4l-1.9-3.4 6.1-4.2 2.4 3q0.9-0.4 1.8-0.7 0.9-0.2 1.8-0.4 0.9-0.2 1.8-0.3 0.9-0.2 1.8-0.2l1-3.6 7.3 1.3-0.3 3.8q0.8 0.3 1.7 0.8 0.8 0.4 1.6 0.9 0.7 0.5 1.5 1.1 0.7 0.6 1.3 1.2l3.4-1.9 4.2 6.1-2.9 2.5q0.3 0.8 0.6 1.7 0.3 0.9 0.5 1.8 0.2 0.9 0.3 1.8 0.1 1 0.1 1.9l3.7 1-1.4 7.2-3.8-0.3q-0.3 0.9-0.8 1.7-0.4 0.8-0.9 1.6-0.5 0.8-1.1 1.5-0.6 0.7-1.2 1.4l1.8 3.3-6.1 4.2-2.4-2.9q-0.9 0.3-1.8 0.6-0.8 0.3-1.8 0.5-0.9 0.2-1.8 0.3-0.9 0.1-1.8 0.1l-1 3.7-7.3-1.3 0.3-3.9q-0.8-0.3-1.6-0.7-0.9-0.5-1.6-1-0.8-0.5-1.5-1-0.8-0.6-1.4-1.3l-3.4 1.9-4.2-6.1 3-2.4q-0.4-0.9-0.7-1.8-0.3-0.8-0.4-1.8-0.2-0.9-0.4-1.8-0.1-0.9-0.1-1.8zm13.7 2.6q0.5 2 1.5 3.6c0.8 1.1 1.7 2 2.8 2.7 1.1 0.7 2.4 1.2 3.6 1.5 4 0.7 8.1-1 10.3-4.4 2.2-3.4 2.1-7.8-0.2-11.1-2.3-3.4-6.4-5-10.3-4.1-4 0.8-7 4-7.8 7.9-0.2 1.3-0.2 2.6 0.1 3.9z"/><path class="c" d="m344.4 225.7l-11.1 4.1 11.1 4v4.2l-16-6.1v-4.3l16-6.1z"/><path class="c" d="m356.4 213.3h4.7l-11 31.6h-4.7z"/><path class="c" d="m377.7 227.6v4.4l-16 6.1v-4.2l11.2-4.1-11.2-4.1v-4.1z"/><path class="c" d="m66.8 279.1c1.6 0.5 2.4 1.5 2.4 3.9v5.5q-0.1 0.6 0.1 1.1 0.1 0.5 0.5 0.9 0.4 0.3 0.9 0.5 0.5 0.2 1 0.1h0.7v4.3h-2c-4.4 0-6.6-2.3-6.6-6.3v-6.3c0-1.1-0.6-1.6-1.6-1.6h-1.1v-4.2h1.1c1 0 1.6-0.5 1.6-1.6v-6.4c0-4 2.2-6.2 6.6-6.2h2v4.2h-0.7q-0.5-0.1-1 0.1-0.5 0.2-0.9 0.6-0.4 0.3-0.5 0.8-0.2 0.6-0.1 1.1v5.5c0 2.5-0.8 3.5-2.4 4z"/><path class="c" d="m94.6 277v4.3h-1.2q-0.3-0.1-0.6 0-0.3 0.2-0.6 0.4-0.2 0.2-0.3 0.6-0.1 0.3 0 0.6v6.3c0 4-2.3 6.2-6.6 6.2h-2v-4.2h0.6q0.5 0 1-0.1 0.5-0.2 0.9-0.6 0.4-0.4 0.6-0.9 0.1-0.5 0.1-1v-5.6c0-2.4 0.7-3.4 2.3-3.9-1.6-0.5-2.3-1.5-2.3-3.9v-5.6q0-0.5-0.1-1-0.2-0.6-0.6-0.9-0.4-0.4-0.9-0.6-0.5-0.2-1-0.1h-0.6v-4.3h2c4.3 0 6.6 2.3 6.6 6.3v6.3q-0.1 0.3 0 0.6 0.1 0.3 0.3 0.6 0.2 0.2 0.6 0.3 0.3 0.2 0.6 0.1z"/><path class="c" d="m136.1 190.6l3.2-3.9c1.4 1.8 3 2.8 4.8 2.8q3.6 0 3.6-4.2v-12.2h-9v-4.8h14.9v16.6c0 6.3-3.2 9.5-9.2 9.5q-1.2 0-2.4-0.2-1.1-0.2-2.2-0.7-1.1-0.5-2-1.2-1-0.8-1.7-1.7z"/><path class="c" d="m157.1 192.1l1.9-4.1q0.8 0.5 1.6 0.8 0.8 0.4 1.7 0.6 0.9 0.2 1.7 0.4 0.9 0.1 1.8 0.1c2.7 0 3.7-0.7 3.7-1.8 0-3.2-11.9 0.1-11.9-7.8 0-3.7 3.3-6.3 9.1-6.3q1 0 1.9 0.1 1 0.1 2 0.3 0.9 0.2 1.8 0.5 1 0.3 1.8 0.8l-1.9 4q-0.6-0.3-1.3-0.6-0.7-0.3-1.4-0.5-0.7-0.1-1.5-0.2-0.7-0.1-1.4-0.1c-2.6 0-3.7 0.8-3.7 1.8 0 3.4 11.9 0.1 11.9 7.9 0 3.6-3.4 6.2-9.3 6.2q-1.1 0-2.2-0.1-1.1-0.1-2.2-0.4-1-0.3-2.1-0.7-1-0.4-2-0.9z"/><path class="d" d="m204 352.6c-107.2 0-193.9-5.1-193.9-11.4 0-6.2 86.7-11.3 193.9-11.3 107.2 0 193.9 5.1 193.9 11.3 0 6.3-86.7 11.4-193.9 11.4z"/><path class="e" d="m247.8 20.3c0-1.3 1-2.3 2.3-2.3h29.8c1.3 0 2.3 1 2.3 2.3v29.8c0 1.3-1 2.3-2.3 2.3h-29.8c-1.3 0-2.3-1-2.3-2.3z"/><g style="opacity:.4"><path class="f" d="m247.8 20.3c0-1.3 1-2.3 2.3-2.3h29.8c1.3 0 2.3 1 2.3 2.3v29.8c0 1.3-1 2.3-2.3 2.3h-29.8c-1.3 0-2.3-1-2.3-2.3z"/></g><path class="f" d="m260.4 33.4l-6 2.2 6 2.1v2.3l-8.5-3.3v-2.3l8.5-3.2z"/><path class="f" d="m266.8 26.8h2.5l-5.9 16.8h-2.5z"/><path class="f" d="m278.1 34.4v2.3l-8.5 3.3v-2.2l6-2.2-6-2.2v-2.2z"/><path class="g" d="m255.4 58.7v8.3h-1.9v-3.4h-3.8v3.4h-2v-8.3h2v3.3h3.8v-3.3z"/><path class="g" d="m259.1 60.2h-2.7v-1.5h7.3v1.5h-2.7v6.8h-1.9z"/><path class="g" d="m272.4 67v-5l-2.5 4.1h-0.9l-2.4-4v4.9h-1.9v-8.3h1.6l3.2 5.1 3-5.1h1.6v8.3z"/><path class="g" d="m276.2 58.7h1.9v6.7h4.2v1.6h-6.1z"/><g style="opacity:.6"><path class="f" d="m255.4 58.7v8.3h-1.9v-3.4h-3.8v3.4h-2v-8.3h2v3.3h3.8v-3.3z"/><path class="f" d="m259.1 60.2h-2.7v-1.5h7.3v1.5h-2.7v6.8h-1.9z"/><path class="f" d="m272.4 67v-5l-2.5 4.1h-0.9l-2.4-4v4.9h-1.9v-8.3h1.6l3.2 5.1 3-5.1h1.6v8.3z"/><path class="f" d="m276.2 58.7h1.9v6.7h4.2v1.6h-6.1z"/></g><path class="e" d="m321.3 38.6c0-1.3 1.1-2.3 2.3-2.3h29.8c1.3 0 2.3 1 2.3 2.3v29.8c0 1.3-1 2.3-2.3 2.3h-29.8c-1.2 0-2.3-1-2.3-2.3z"/><g style="opacity:.4"><path class="f" d="m321.3 38.6c0-1.3 1.1-2.3 2.3-2.3h29.8c1.3 0 2.3 1 2.3 2.3v29.8c0 1.3-1 2.3-2.3 2.3h-29.8c-1.2 0-2.3-1-2.3-2.3z"/></g><path class="f" d="m332.9 53.5c0.8 0.3 1.2 0.8 1.2 2v2.9q0 0.3 0 0.5 0.1 0.3 0.3 0.5 0.2 0.2 0.5 0.2 0.2 0.1 0.5 0.1h0.3v2.2h-1c-2.2 0-3.4-1.2-3.4-3.2v-3.3q0.1-0.1 0-0.3 0-0.1-0.2-0.3-0.1-0.1-0.2-0.2-0.2 0-0.4 0h-0.5v-2.2h0.5q0.2 0 0.4 0 0.1-0.1 0.2-0.2 0.2-0.1 0.2-0.3 0.1-0.2 0-0.3v-3.3c0-2 1.2-3.2 3.4-3.2h1v2.2h-0.3q-0.3 0-0.5 0.1-0.3 0.1-0.5 0.3-0.2 0.1-0.3 0.4 0 0.3 0 0.5v2.9c0 1.2-0.4 1.8-1.2 2z"/><path class="f" d="m347.1 52.4v2.2h-0.6q-0.1 0-0.3 0.1-0.1 0-0.3 0.1-0.1 0.2-0.1 0.3-0.1 0.2-0.1 0.4v3.2c0 2.1-1.1 3.2-3.3 3.2h-1v-2.2h0.3q0.3 0 0.5 0 0.3-0.1 0.5-0.3 0.2-0.2 0.2-0.5 0.1-0.2 0.1-0.5v-2.9c0-1.2 0.4-1.7 1.2-2-0.8-0.2-1.2-0.7-1.2-2v-2.8q0-0.3-0.1-0.6 0-0.2-0.2-0.4-0.2-0.2-0.5-0.3-0.2-0.1-0.5-0.1h-0.3v-2.2h1c2.2 0 3.3 1.2 3.3 3.3v3.2q0 0.2 0.1 0.3 0 0.2 0.1 0.3 0.2 0.1 0.3 0.2 0.2 0 0.3 0z"/><path class="g" d="m327 81.3c0-0.9 0.4-1.8 0.9-2.5 0.6-0.8 1.3-1.3 2.2-1.6 0.8-0.3 1.7-0.4 2.6-0.1 0.9 0.2 1.7 0.7 2.3 1.3l-1.2 1.2q-0.2-0.2-0.5-0.4-0.2-0.2-0.5-0.3-0.2-0.2-0.5-0.2-0.3-0.1-0.6-0.1c-0.8-0.1-1.5 0.2-2 0.7-0.6 0.5-0.9 1.2-0.9 2 0 0.7 0.3 1.4 0.9 1.9 0.5 0.5 1.2 0.8 2 0.7q0.3 0 0.6 0 0.3-0.1 0.5-0.2 0.3-0.2 0.5-0.3 0.3-0.2 0.5-0.5l1.2 1.2c-0.6 0.7-1.4 1.1-2.3 1.4-0.9 0.2-1.8 0.1-2.6-0.2-0.9-0.3-1.7-0.8-2.2-1.5-0.5-0.8-0.9-1.6-0.9-2.6z"/><path class="g" d="m335.5 84.6l0.7-1.4q0.3 0.2 0.6 0.3 0.3 0.2 0.7 0.3 0.3 0.1 0.7 0.2 0.4 0 0.7 0c1.2 0 1.6-0.3 1.6-0.8 0-1.6-4.8-0.5-4.8-3.6 0-1.4 1.1-2.6 3.5-2.6q0.4 0 0.8 0 0.3 0 0.7 0.1 0.4 0.1 0.7 0.3 0.4 0.1 0.7 0.3l-0.6 1.5q-0.3-0.2-0.5-0.3-0.3-0.1-0.6-0.2-0.3-0.1-0.6-0.1-0.3-0.1-0.6-0.1c-1.2 0-1.6 0.4-1.6 1 0 1.5 4.9 0.4 4.9 3.5 0 1.4-1.2 2.6-3.6 2.6q-0.4 0-0.9 0-0.4-0.1-0.9-0.2-0.4-0.1-0.8-0.3-0.4-0.2-0.8-0.5z"/><path class="g" d="m343.1 84.6l0.7-1.4q0.3 0.2 0.6 0.4 0.4 0.1 0.7 0.2 0.4 0.1 0.7 0.2 0.4 0 0.7 0c1.2 0 1.7-0.3 1.7-0.8 0-1.6-4.9-0.5-4.9-3.6 0-1.4 1.1-2.6 3.5-2.6q0.4 0 0.8 0 0.4 0 0.7 0.1 0.4 0.1 0.7 0.3 0.4 0.1 0.7 0.3l-0.6 1.5q-0.2-0.2-0.5-0.3-0.3-0.1-0.6-0.2-0.3-0.1-0.6-0.1-0.3-0.1-0.6-0.1c-1.1 0-1.6 0.4-1.6 1 0 1.5 4.9 0.4 4.9 3.5 0 1.4-1.2 2.6-3.6 2.6q-0.4 0-0.9 0-0.4-0.1-0.8-0.2-0.5-0.1-0.9-0.3-0.4-0.2-0.8-0.5z"/><g style="opacity:.6"><path class="f" d="m327 81.3c0-0.9 0.4-1.8 0.9-2.5 0.6-0.8 1.3-1.3 2.2-1.6 0.8-0.3 1.7-0.4 2.6-0.1 0.9 0.2 1.7 0.7 2.3 1.3l-1.2 1.2q-0.2-0.2-0.5-0.4-0.2-0.2-0.5-0.3-0.2-0.2-0.5-0.2-0.3-0.1-0.6-0.1c-0.8-0.1-1.5 0.2-2 0.7-0.6 0.5-0.9 1.2-0.9 2 0 0.7 0.3 1.4 0.9 1.9 0.5 0.5 1.2 0.8 2 0.7q0.3 0 0.6 0 0.3-0.1 0.5-0.2 0.3-0.2 0.5-0.3 0.3-0.2 0.5-0.5l1.2 1.2c-0.6 0.7-1.4 1.1-2.3 1.4-0.9 0.2-1.8 0.1-2.6-0.2-0.9-0.3-1.7-0.8-2.2-1.5-0.5-0.8-0.9-1.6-0.9-2.6z"/><path class="f" d="m335.5 84.6l0.7-1.4q0.3 0.2 0.6 0.3 0.3 0.2 0.7 0.3 0.3 0.1 0.7 0.2 0.4 0 0.7 0c1.2 0 1.6-0.3 1.6-0.8 0-1.6-4.8-0.5-4.8-3.6 0-1.4 1.1-2.6 3.5-2.6q0.4 0 0.8 0 0.3 0 0.7 0.1 0.4 0.1 0.7 0.3 0.4 0.1 0.7 0.3l-0.6 1.5q-0.3-0.2-0.5-0.3-0.3-0.1-0.6-0.2-0.3-0.1-0.6-0.1-0.3-0.1-0.6-0.1c-1.2 0-1.6 0.4-1.6 1 0 1.5 4.9 0.4 4.9 3.5 0 1.4-1.2 2.6-3.6 2.6q-0.4 0-0.9 0-0.4-0.1-0.9-0.2-0.4-0.1-0.8-0.3-0.4-0.2-0.8-0.5z"/><path class="f" d="m343.1 84.6l0.7-1.4q0.3 0.2 0.6 0.4 0.4 0.1 0.7 0.2 0.4 0.1 0.7 0.2 0.4 0 0.7 0c1.2 0 1.7-0.3 1.7-0.8 0-1.6-4.9-0.5-4.9-3.6 0-1.4 1.1-2.6 3.5-2.6q0.4 0 0.8 0 0.4 0 0.7 0.1 0.4 0.1 0.7 0.3 0.4 0.1 0.7 0.3l-0.6 1.5q-0.2-0.2-0.5-0.3-0.3-0.1-0.6-0.2-0.3-0.1-0.6-0.1-0.3-0.1-0.6-0.1c-1.1 0-1.6 0.4-1.6 1 0 1.5 4.9 0.4 4.9 3.5 0 1.4-1.2 2.6-3.6 2.6q-0.4 0-0.9 0-0.4-0.1-0.8-0.2-0.5-0.1-0.9-0.3-0.4-0.2-0.8-0.5z"/></g><path  d="m102.6 33h122.5v88.7h-122.5z"/><path class="h" d="m102.6 33h122.5v88.7h-122.5z"/><path class="i" d="m102.6 33h17v88.7h-17z"/><path class="e" d="m102.6 33h122.5v8.3h-122.5z"/><g style="opacity:.2"><path  d="m151.7 53.8h-22.3q-0.4 0-0.7-0.3-0.3-0.3-0.3-0.7 0-0.4 0.3-0.7 0.3-0.3 0.7-0.3h22.3q0.4 0 0.7 0.3 0.3 0.3 0.3 0.7 0 0.4-0.3 0.7-0.3 0.3-0.7 0.3z"/><path  d="m201 53.8h-43.3q-0.5 0-0.8-0.3-0.2-0.3-0.2-0.7 0-0.4 0.2-0.7 0.3-0.3 0.8-0.3h43.3q0.4 0 0.7 0.3 0.3 0.3 0.3 0.7 0 0.4-0.3 0.7-0.3 0.3-0.7 0.3z"/><path  d="m190.7 60.3h-58.3q-0.4 0-0.7-0.3-0.3-0.3-0.3-0.7 0-0.4 0.3-0.7 0.3-0.3 0.7-0.3h58.3q0.4 0 0.7 0.3 0.3 0.3 0.3 0.7 0 0.4-0.3 0.7-0.3 0.3-0.7 0.3z"/><path  d="m166.9 66.8h-37.5q-0.4 0-0.7-0.3-0.3-0.3-0.3-0.7 0-0.4 0.3-0.7 0.3-0.3 0.7-0.3h37.5q0.5 0 0.7 0.3 0.3 0.3 0.3 0.7 0 0.4-0.3 0.7-0.2 0.3-0.7 0.3z"/><path  d="m201 66.8h-26.9q-0.4 0-0.7-0.3-0.3-0.3-0.3-0.7 0-0.4 0.3-0.7 0.3-0.3 0.7-0.3h26.9q0.4 0 0.7 0.3 0.3 0.3 0.3 0.7 0 0.4-0.3 0.7-0.3 0.3-0.7 0.3z"/><path  d="m150.1 73.4h-20.7q-0.4 0-0.7-0.3-0.3-0.3-0.3-0.7 0-0.5 0.3-0.7 0.3-0.3 0.7-0.3h20.7q0.4 0 0.7 0.3 0.3 0.2 0.3 0.7 0 0.4-0.3 0.7-0.3 0.3-0.7 0.3z"/><path  d="m189.5 73.4h-32.7q-0.4 0-0.7-0.3-0.2-0.3-0.3-0.7 0.1-0.5 0.3-0.7 0.3-0.3 0.7-0.3h32.7q0.4 0 0.7 0.3 0.3 0.2 0.3 0.7 0 0.4-0.3 0.7-0.3 0.3-0.7 0.3z"/><path  d="m160.3 79.9h-27.9q-0.4 0-0.7-0.3-0.3-0.3-0.3-0.7 0-0.4 0.3-0.7 0.3-0.3 0.7-0.3h27.9q0.4 0 0.7 0.3 0.3 0.3 0.3 0.7 0 0.4-0.3 0.7-0.3 0.3-0.7 0.3z"/><path  d="m163.8 86.4h-31.4q-0.4 0-0.7-0.3-0.3-0.3-0.3-0.7 0-0.4 0.3-0.7 0.3-0.3 0.7-0.3h31.4q0.4 0 0.7 0.3 0.3 0.3 0.3 0.7 0 0.4-0.3 0.7-0.3 0.3-0.7 0.3z"/><path  d="m201 86.4h-32q-0.4 0-0.7-0.3-0.3-0.3-0.3-0.7 0-0.4 0.3-0.7 0.3-0.3 0.7-0.3h32q0.4 0 0.7 0.3 0.3 0.3 0.3 0.7 0 0.4-0.3 0.7-0.3 0.3-0.7 0.3z"/><path  d="m147.4 92.9h-18q-0.5 0-0.7-0.3-0.3-0.2-0.3-0.7 0-0.4 0.3-0.7 0.2-0.3 0.7-0.3h18q0.4 0 0.7 0.3 0.3 0.3 0.3 0.7 0 0.5-0.3 0.7-0.3 0.3-0.7 0.3z"/><path  d="m201 92.9h-47.5q-0.4 0-0.7-0.3-0.3-0.2-0.3-0.7 0-0.4 0.3-0.7 0.3-0.3 0.7-0.3h47.5q0.4 0 0.7 0.3 0.3 0.3 0.3 0.7 0 0.5-0.3 0.7-0.3 0.3-0.7 0.3z"/><path  d="m163.6 99.5h-31.2q-0.4 0-0.7-0.3-0.3-0.3-0.3-0.7 0-0.4 0.3-0.7 0.3-0.3 0.7-0.3h31.2q0.4 0 0.7 0.3 0.3 0.3 0.3 0.7 0 0.4-0.3 0.7-0.3 0.3-0.7 0.3z"/><path  d="m188.1 99.5h-20.2q-0.4 0-0.7-0.3-0.3-0.3-0.3-0.7 0-0.4 0.3-0.7 0.3-0.3 0.7-0.3h20.2q0.4 0 0.7 0.3 0.3 0.3 0.3 0.7 0 0.4-0.3 0.7-0.3 0.3-0.7 0.3z"/><path  d="m168.3 106h-35.9q-0.4 0-0.7-0.3-0.3-0.3-0.3-0.7 0-0.4 0.3-0.7 0.3-0.3 0.7-0.3h35.9q0.4 0 0.7 0.3 0.3 0.3 0.3 0.7 0 0.4-0.3 0.7-0.3 0.3-0.7 0.3z"/></g><path class="j" d="m219.8 38.9c-1 0-1.7-0.8-1.7-1.7 0-1 0.7-1.7 1.7-1.7 0.9 0 1.7 0.7 1.7 1.7 0 0.9-0.8 1.7-1.7 1.7z"/><path class="j" d="m213.8 38.9c-1 0-1.7-0.8-1.7-1.7 0-1 0.7-1.7 1.7-1.7 0.9 0 1.7 0.7 1.7 1.7 0 0.9-0.8 1.7-1.7 1.7z"/><path class="j" d="m207.8 38.9c-1 0-1.7-0.8-1.7-1.7 0-1 0.7-1.7 1.7-1.7 0.9 0 1.7 0.7 1.7 1.7 0 0.9-0.8 1.7-1.7 1.7z"/><g style="opacity:.2"><path  d="m111.4 53.8q-0.4 0-0.7-0.3-0.3-0.3-0.3-0.7 0-0.4 0.3-0.7 0.3-0.3 0.7-0.3 0.2 0 0.4 0.1 0.1 0 0.3 0.2 0.1 0.1 0.2 0.3 0.1 0.2 0.1 0.4 0 0.2-0.1 0.4-0.1 0.1-0.2 0.3-0.2 0.1-0.3 0.2-0.2 0.1-0.4 0.1z"/><path  d="m111.4 60.3q-0.4 0-0.7-0.3-0.3-0.3-0.3-0.7 0-0.4 0.3-0.7 0.3-0.3 0.7-0.3 0.2 0 0.4 0.1 0.1 0.1 0.3 0.2 0.1 0.1 0.2 0.3 0.1 0.2 0.1 0.4 0 0.2-0.1 0.4-0.1 0.2-0.2 0.3-0.2 0.2-0.3 0.2-0.2 0.1-0.4 0.1z"/><path  d="m111.4 66.8q-0.4 0-0.7-0.3-0.3-0.3-0.3-0.7 0-0.4 0.3-0.7 0.3-0.3 0.7-0.3 0.2 0 0.4 0.1 0.1 0.1 0.3 0.2 0.1 0.2 0.2 0.3 0.1 0.2 0.1 0.4 0 0.2-0.1 0.4-0.1 0.2-0.2 0.3-0.2 0.2-0.3 0.3-0.2 0-0.4 0z"/><path  d="m111.4 73.4q-0.4 0-0.7-0.3-0.3-0.3-0.3-0.7 0-0.5 0.3-0.7 0.3-0.3 0.7-0.3 0.2 0 0.4 0 0.1 0.1 0.3 0.3 0.1 0.1 0.2 0.3 0.1 0.2 0.1 0.4 0 0.2-0.1 0.3-0.1 0.2-0.2 0.4-0.2 0.1-0.3 0.2-0.2 0.1-0.4 0.1z"/><path  d="m111.4 79.9q-0.4 0-0.7-0.3-0.3-0.3-0.3-0.7 0-0.4 0.3-0.7 0.3-0.3 0.7-0.3 0.2 0 0.4 0.1 0.1 0 0.3 0.2 0.1 0.1 0.2 0.3 0.1 0.2 0.1 0.4 0 0.2-0.1 0.4-0.1 0.2-0.2 0.3-0.2 0.1-0.3 0.2-0.2 0.1-0.4 0.1z"/><path  d="m111.4 86.4q-0.4 0-0.7-0.3-0.3-0.3-0.3-0.7 0-0.4 0.3-0.7 0.3-0.3 0.7-0.3 0.2 0 0.4 0.1 0.1 0.1 0.3 0.2 0.1 0.2 0.2 0.3 0.1 0.2 0.1 0.4 0 0.2-0.1 0.4-0.1 0.2-0.2 0.3-0.2 0.2-0.3 0.2-0.2 0.1-0.4 0.1z"/><path  d="m111.4 92.9q-0.4 0-0.7-0.3-0.3-0.2-0.3-0.7 0-0.4 0.3-0.7 0.3-0.3 0.7-0.3 0.2 0 0.4 0.1 0.1 0.1 0.3 0.2 0.1 0.2 0.2 0.4 0.1 0.1 0.1 0.3 0 0.2-0.1 0.4-0.1 0.2-0.2 0.3-0.2 0.2-0.3 0.3-0.2 0-0.4 0z"/><path  d="m111.4 99.5q-0.4 0-0.7-0.3-0.3-0.3-0.3-0.7 0-0.4 0.3-0.7 0.3-0.3 0.7-0.3 0.2 0 0.4 0 0.1 0.1 0.3 0.3 0.1 0.1 0.2 0.3 0.1 0.2 0.1 0.4 0 0.2-0.1 0.4-0.1 0.1-0.2 0.3-0.2 0.1-0.3 0.2-0.2 0.1-0.4 0.1z"/><path  d="m111.4 106q-0.4 0-0.7-0.3-0.3-0.3-0.3-0.7 0-0.4 0.3-0.7 0.3-0.3 0.7-0.3 0.2 0 0.4 0.1 0.1 0.1 0.3 0.2 0.1 0.1 0.2 0.3 0.1 0.2 0.1 0.4 0 0.2-0.1 0.4-0.1 0.2-0.2 0.3-0.2 0.1-0.3 0.2-0.2 0.1-0.4 0.1z"/></g><path class="g" d="m175.5 105.3h160.5v102.8h-160.5z"/><path class="h" d="m175.5 105.3h160.5v102.8h-160.5z"/><path class="i" d="m175.5 105.3h25v102.8h-25z"/><path class="e" d="m175.5 105.3h160.5v8.3h-160.5z"/><path class="f" d="m186.8 122.7l-2.6 1 2.6 1v1l-3.8-1.4v-1l3.8-1.5z"/><path class="f" d="m189.7 119.8h1.1l-2.6 7.5h-1.1z"/><path class="f" d="m194.8 123.2v1l-3.8 1.4v-1l2.6-1-2.6-1v-1z"/><g style="opacity:.2"><path  d="m194.2 134.2h-10.9q-0.4-0.1-0.7-0.3-0.3-0.3-0.3-0.7 0-0.5 0.3-0.8 0.3-0.2 0.7-0.2h10.9q0.4 0 0.7 0.2 0.3 0.3 0.3 0.8 0 0.4-0.3 0.7-0.3 0.2-0.7 0.3z"/><path  d="m194.2 140.7h-10.9q-0.4 0-0.7-0.3-0.3-0.3-0.3-0.7 0-0.4 0.3-0.7 0.3-0.3 0.7-0.3h10.9q0.4 0 0.7 0.3 0.3 0.3 0.3 0.7 0 0.4-0.3 0.7-0.3 0.3-0.7 0.3z"/><path  d="m194.2 147.2h-10.9q-0.4 0-0.7-0.3-0.3-0.3-0.3-0.7 0-0.4 0.3-0.7 0.3-0.3 0.7-0.3h10.9q0.4 0 0.7 0.3 0.3 0.3 0.3 0.7 0 0.4-0.3 0.7-0.3 0.3-0.7 0.3z"/><path  d="m194.2 153.7h-10.9q-0.4 0-0.7-0.3-0.3-0.3-0.3-0.7 0-0.4 0.3-0.7 0.3-0.3 0.7-0.3h10.9q0.4 0 0.7 0.3 0.3 0.3 0.3 0.7 0 0.4-0.3 0.7-0.3 0.3-0.7 0.3z"/><path  d="m194.2 160.3h-10.9q-0.4 0-0.7-0.3-0.3-0.3-0.3-0.7 0-0.5 0.3-0.7 0.3-0.3 0.7-0.3h10.9q0.4 0 0.7 0.3 0.3 0.2 0.3 0.7 0 0.4-0.3 0.7-0.3 0.3-0.7 0.3z"/><path  d="m194.2 166.8h-10.9q-0.4 0-0.7-0.3-0.3-0.3-0.3-0.7 0-0.4 0.3-0.7 0.3-0.3 0.7-0.3h10.9q0.4 0 0.7 0.3 0.3 0.3 0.3 0.7 0 0.4-0.3 0.7-0.3 0.3-0.7 0.3z"/><path  d="m194.2 173.3h-10.9q-0.4 0-0.7-0.3-0.3-0.3-0.3-0.7 0-0.4 0.3-0.7 0.3-0.3 0.7-0.3h10.9q0.4 0 0.7 0.3 0.3 0.3 0.3 0.7 0 0.4-0.3 0.7-0.3 0.3-0.7 0.3z"/><path  d="m194.2 179.8h-10.9q-0.4 0-0.7-0.3-0.3-0.2-0.3-0.7 0-0.4 0.3-0.7 0.3-0.3 0.7-0.3h10.9q0.4 0 0.7 0.3 0.3 0.3 0.3 0.7 0 0.5-0.3 0.7-0.3 0.3-0.7 0.3z"/><path  d="m194.2 186.4h-10.9q-0.4 0-0.7-0.3-0.3-0.3-0.3-0.7 0-0.4 0.3-0.7 0.3-0.3 0.7-0.3h10.9q0.4 0 0.7 0.3 0.3 0.3 0.3 0.7 0 0.4-0.3 0.7-0.3 0.3-0.7 0.3z"/></g><path class="e" d="m225.6 134.2h-22.3q-0.4-0.1-0.7-0.3-0.3-0.3-0.3-0.7 0-0.5 0.3-0.8 0.3-0.2 0.7-0.2h22.3q0.5 0 0.8 0.2 0.2 0.3 0.2 0.8 0 0.4-0.2 0.7-0.3 0.2-0.8 0.3z"/><path class="g" d="m289.7 134.2h-58.1q-0.4-0.1-0.7-0.3-0.3-0.3-0.3-0.7 0-0.5 0.3-0.8 0.3-0.2 0.7-0.2h58.1q0.5 0 0.7 0.2 0.3 0.3 0.3 0.8 0 0.4-0.3 0.7-0.2 0.2-0.7 0.3z"/><g style="opacity:.2"><path class="g" d="m316.3 134.2h-16.9q-0.4-0.1-0.7-0.3-0.3-0.3-0.3-0.7 0-0.5 0.3-0.8 0.3-0.2 0.7-0.2h16.9q0.4 0 0.7 0.2 0.3 0.3 0.3 0.8 0 0.4-0.3 0.7-0.3 0.2-0.7 0.3z"/></g><g style="opacity:.2"><path class="g" d="m264.6 140.7h-58.3q-0.4 0-0.7-0.3-0.3-0.3-0.3-0.7 0-0.4 0.3-0.7 0.3-0.3 0.7-0.3h58.3q0.4 0 0.7 0.3 0.3 0.3 0.3 0.7 0 0.4-0.3 0.7-0.3 0.3-0.7 0.3z"/></g><path class="e" d="m324.3 140.7h-54.3q-0.4 0-0.7-0.3-0.3-0.3-0.3-0.7 0-0.4 0.3-0.7 0.3-0.3 0.7-0.3h54.3q0.4 0 0.7 0.3 0.3 0.3 0.3 0.7 0 0.4-0.3 0.7-0.3 0.3-0.7 0.3z"/><path class="g" d="m240.9 147.2h-34.6q-0.4 0-0.7-0.3-0.3-0.3-0.3-0.7 0-0.4 0.3-0.7 0.3-0.3 0.7-0.3h34.6q0.4 0 0.7 0.3 0.3 0.3 0.3 0.7 0 0.4-0.3 0.7-0.3 0.3-0.7 0.3z"/><path class="e" d="m282 147.2h-34q-0.4 0-0.7-0.3-0.3-0.3-0.3-0.7 0-0.4 0.3-0.7 0.3-0.3 0.7-0.3h34q0.4 0 0.7 0.3 0.3 0.3 0.3 0.7 0 0.4-0.3 0.7-0.3 0.3-0.7 0.3z"/><path class="g" d="m324.3 147.2h-36.7q-0.5 0-0.7-0.3-0.3-0.3-0.3-0.7 0-0.4 0.3-0.7 0.2-0.3 0.7-0.3h36.7q0.4 0 0.7 0.3 0.3 0.3 0.3 0.7 0 0.4-0.3 0.7-0.3 0.3-0.7 0.3z"/><path class="g" d="m244.1 153.7h-20.8q-0.4 0-0.7-0.3-0.2-0.3-0.2-0.7 0-0.4 0.2-0.7 0.3-0.3 0.8-0.3h20.7q0.4 0 0.7 0.3 0.3 0.3 0.3 0.7 0 0.4-0.3 0.7-0.3 0.3-0.7 0.3z"/><path class="g" d="m273.4 153.7h-22.6q-0.4 0-0.7-0.3-0.3-0.3-0.3-0.7 0-0.4 0.3-0.7 0.3-0.3 0.7-0.3h22.6q0.5 0 0.7 0.3 0.3 0.3 0.3 0.7 0 0.4-0.3 0.7-0.2 0.3-0.7 0.3z"/><g style="opacity:.2"><path class="g" d="m315.3 153.7h-36.7q-0.4 0-0.7-0.3-0.3-0.3-0.3-0.7 0-0.4 0.3-0.7 0.3-0.3 0.7-0.3h36.7q0.4 0 0.7 0.3 0.3 0.3 0.3 0.7 0 0.4-0.3 0.7-0.3 0.3-0.7 0.3z"/></g><g style="opacity:.2"><path class="g" d="m234.2 160.3h-27.9q-0.4 0-0.7-0.3-0.3-0.3-0.3-0.7 0-0.5 0.3-0.7 0.3-0.3 0.7-0.3h27.9q0.4 0 0.7 0.3 0.3 0.2 0.3 0.7 0 0.4-0.3 0.7-0.3 0.3-0.7 0.3z"/></g><path class="e" d="m237.7 166.8h-31.4q-0.4 0-0.7-0.3-0.3-0.3-0.3-0.7 0-0.4 0.3-0.7 0.3-0.3 0.7-0.3h31.4q0.4 0 0.7 0.3 0.3 0.3 0.3 0.7 0 0.4-0.3 0.7-0.3 0.3-0.7 0.3z"/><path class="g" d="m290.1 166.8h-47.2q-0.5 0-0.7-0.3-0.3-0.3-0.3-0.7 0-0.4 0.3-0.7 0.2-0.3 0.7-0.3h47.2q0.5 0 0.7 0.3 0.3 0.3 0.3 0.7 0 0.4-0.3 0.7-0.2 0.3-0.7 0.3z"/><path class="g" d="m324.3 166.8h-28.4q-0.4 0-0.7-0.3-0.3-0.3-0.3-0.7 0-0.4 0.3-0.7 0.3-0.3 0.7-0.3h28.4q0.4 0 0.7 0.3 0.3 0.3 0.3 0.7 0 0.4-0.3 0.7-0.3 0.3-0.7 0.3z"/><g style="opacity:.2"><path class="g" d="m234.3 173.3h-18q-0.4 0-0.7-0.3-0.3-0.3-0.3-0.7 0-0.4 0.3-0.7 0.3-0.3 0.7-0.3h18q0.4 0 0.7 0.3 0.3 0.3 0.3 0.7 0 0.4-0.3 0.7-0.3 0.3-0.7 0.3z"/></g><g style="opacity:.2"><path class="g" d="m274.9 173.3h-34.5q-0.4 0-0.7-0.3-0.3-0.3-0.3-0.7 0-0.4 0.3-0.7 0.3-0.3 0.7-0.3h34.5q0.4 0 0.7 0.3 0.3 0.3 0.3 0.7 0 0.4-0.3 0.7-0.3 0.3-0.7 0.3z"/></g><path class="g" d="m315.3 173.3h-33.7q-0.4 0-0.7-0.3-0.3-0.3-0.3-0.7 0-0.4 0.3-0.7 0.3-0.3 0.7-0.3h33.7q0.4 0 0.7 0.3 0.3 0.3 0.3 0.7 0 0.4-0.3 0.7-0.3 0.3-0.7 0.3z"/><path class="g" d="m247.5 179.8h-21.1q-0.5 0-0.8-0.3-0.2-0.2-0.2-0.7 0-0.4 0.2-0.7 0.3-0.3 0.8-0.3h21.1q0.4 0 0.7 0.3 0.3 0.3 0.3 0.7 0 0.5-0.3 0.7-0.3 0.3-0.7 0.3z"/><g style="opacity:.2"><path class="g" d="m272.1 179.8h-20.2q-0.4 0-0.7-0.3-0.3-0.2-0.3-0.7 0-0.4 0.3-0.7 0.3-0.3 0.7-0.3h20.1q0.5 0 0.8 0.3 0.2 0.3 0.2 0.7 0 0.5-0.2 0.7-0.3 0.3-0.8 0.3z"/></g><path class="e" d="m315.3 179.8h-36.9q-0.4 0-0.7-0.3-0.3-0.2-0.3-0.7 0-0.4 0.3-0.7 0.3-0.3 0.7-0.3h36.9q0.4 0 0.7 0.3 0.3 0.3 0.3 0.7 0 0.5-0.3 0.7-0.3 0.3-0.7 0.3z"/><g style="opacity:.2"><path class="g" d="m252.2 186.4h-25.8q-0.5 0-0.8-0.3-0.2-0.3-0.2-0.7 0-0.4 0.2-0.7 0.3-0.3 0.8-0.3h25.8q0.5 0 0.7 0.3 0.3 0.3 0.3 0.7 0 0.4-0.3 0.7-0.2 0.3-0.7 0.3z"/></g><path class="j" d="m329.1 108.9q0.2-0.3 0.4-0.6 0.2-0.2 0.6-0.3 0.3-0.2 0.6-0.2c0.7 0 1.3 0.4 1.6 1.1 0.3 0.6 0.1 1.4-0.4 1.9-0.5 0.5-1.2 0.6-1.8 0.3-0.7-0.2-1.1-0.9-1.1-1.5q0-0.4 0.1-0.7z"/><path class="j" d="m324.8 111.3c-1 0-1.8-0.8-1.8-1.8 0-0.9 0.8-1.7 1.7-1.7 1 0 1.8 0.8 1.8 1.8 0 0.9-0.8 1.7-1.8 1.7z"/><path class="j" d="m318.7 111.3c-0.9 0-1.7-0.8-1.7-1.8 0-0.9 0.8-1.7 1.7-1.7 1 0 1.8 0.8 1.8 1.8 0 0.9-0.8 1.7-1.8 1.7z"/><path class="e" d="m70.6 112.1c1.1 0.4 2.1 1.1 2.9 1.9 0.8 0.8 1.5 1.8 1.9 2.9 0.5 1 0.7 2.2 0.7 3.4v25c0 1.1-0.2 2.3-0.7 3.3-0.4 1.1-1.1 2.1-1.9 2.9-0.8 0.8-1.8 1.5-2.9 1.9-1 0.5-2.2 0.7-3.3 0.7h-2.4v7.9l-6-7.9h-20.4c-1.1 0-2.3-0.2-3.4-0.7-1-0.4-2-1.1-2.8-1.9-0.8-0.8-1.5-1.8-1.9-2.9-0.5-1-0.7-2.2-0.7-3.3v-25c0-1.2 0.2-2.4 0.7-3.4 0.4-1.1 1.1-2.1 1.9-2.9 0.8-0.8 1.8-1.5 2.9-1.9 1-0.5 2.2-0.7 3.3-0.7h28.8c1.1 0 2.3 0.2 3.3 0.7z"/><path class="k" d="m70.6 112.1c1.1 0.4 2.1 1.1 2.9 1.9 0.8 0.8 1.5 1.8 1.9 2.9 0.5 1 0.7 2.2 0.7 3.4v25c0 1.1-0.2 2.3-0.7 3.3-0.4 1.1-1.1 2.1-1.9 2.9-0.8 0.8-1.8 1.5-2.9 1.9-1 0.5-2.2 0.7-3.3 0.7h-2.4v7.9l-6-7.9h-20.4c-1.1 0-2.3-0.2-3.4-0.7-1-0.4-2-1.1-2.8-1.9-0.8-0.8-1.5-1.8-1.9-2.9-0.5-1-0.7-2.2-0.7-3.3v-25c0-1.2 0.2-2.4 0.7-3.4 0.4-1.1 1.1-2.1 1.9-2.9 0.8-0.8 1.8-1.5 2.9-1.9 1-0.5 2.2-0.7 3.3-0.7h28.8c1.1 0 2.3 0.2 3.3 0.7z"/><path class="f" d="m51.4 139q-0.1 0-0.3 0-0.1-0.1-0.2-0.1-0.2-0.1-0.3-0.2-0.1-0.1-0.2-0.2l-5.6-6.5c-0.2-0.3-0.3-0.6-0.3-1 0-0.3 0.2-0.6 0.5-0.8 0.2-0.3 0.6-0.4 0.9-0.4 0.4 0.1 0.7 0.2 0.9 0.5l4.6 5.4 7.6-8.9c0.2-0.3 0.5-0.4 0.9-0.4q0.5-0.1 0.9 0.3c0.3 0.2 0.4 0.5 0.5 0.8 0 0.4-0.1 0.7-0.3 1l-8.6 10.1q-0.1 0.1-0.2 0.1-0.1 0.1-0.3 0.2-0.1 0-0.2 0.1-0.2 0-0.3 0z"/><path class="e" d="m63 142.7c-5.6 5.6-14.6 5.6-20.2 0-5.6-5.5-5.6-14.6 0-20.1 5.6-5.6 14.6-5.6 20.2 0 5.6 5.5 5.6 14.6 0 20.1z"/><path class="l" d="m158.7 288.5l21.5-1.1-2.1 18.7c0 0-14.9 2.8-21.6-7.8z"/><path class="l" d="m194 293.9l-4.9 13.6-11-1.4 2.1-18.7z"/><path class="e" d="m101.9 318.8c-13.5-14.7 6.6-56.4 6.6-56.4l18.9-3.4c6.8 9.8-0.7 36.8-0.7 36.8 0 0 11.7-4.3 32-7.3l1.5 13.9q-2.4 2.5-5 4.7-2.6 2.3-5.4 4.4-2.8 2-5.7 3.8-2.9 1.9-6 3.5z"/><path class="k" d="m101.9 318.8c-6.2-6.7-5.4-18.9-2.7-30.3q0.9-3.4 1.9-6.7 1-3.3 2.1-6.6 1.2-3.2 2.5-6.4 1.3-3.3 2.7-6.4l18.9-3.4c6.8 9.6-0.3 35.7-0.6 36.7 0.8-0.2 12.4-4.4 32-7.2l1.5 13.9q-2.4 2.5-5 4.7-2.7 2.3-5.4 4.4-2.8 2-5.7 3.8-3 1.9-6 3.5z"/><path class="m" d="m102 318.8c-6.2-6.7-5.4-19-2.7-30.4l24-22.6c0 0 5.9 10.7-0.7 53z"/><path class="e" d="m41.2 318.8c1.2-21.1 4.8-70.9 11.8-75.5 34.2-22.6 73.6 8.5 74.4 15.7 0.5 5-4.5 38.4-9 59.8z"/><path class="k" d="m41.2 318.8c0.2-3 0.4-6.5 0.7-10.4 0.9-13.7 2.5-32 4.8-45.7 1.7-10.1 3.8-17.7 6.3-19.4 34.2-22.6 73.6 8.5 74.4 15.7 0.5 5-4.5 38.4-9 59.8z"/><path class="g" d="m129.6 164.1c25.9 12.9 9.4 68.6 3.6 74.1-5.7 5.5-12.1-1.8-12.1-1.8-5.8 6-16.6-5.3-16.6-5.3-8.7 4.3-18.1-6.3-18.1-6.3-11.3 3.7-14-8-14-8 0 0-15.6 8.5-13.1-22.2 2.4-30.6 30.4-47.8 42.2-43 0 0 2.2-0.4 28.1 12.5z"/><path class="g" d="m101.5 277l-1.1-0.1c1.3-14.8-1.9-21.3-2-21.4l1-0.5c0.2 0.2 3.5 6.8 2.1 22z"/><path class="g" d="m106.9 277.1c-7.9-18.5 1-22.8 1.3-23l0.5 1-0.2-0.5 0.2 0.5c-0.1 0-8.1 4.1-0.8 21.5z"/><path class="e" d="m99.2 258.5c0 0-15.1-12-38.6-18.7l-7.6 3.5c0 0-12.7-15.7 8.4-20.8 21.1-5.1 49.8 9 57 21.1 7.2 12.1-12.5 16-12.5 16 0 0-1.8-2.4-6.7-1.1z"/><path class="n" d="m99.2 258.5c0 0-15.1-12-38.6-18.7l-7.6 3.5c0 0-12.7-15.7 8.4-20.8 21.1-5.1 49.8 9 57 21.1 7.2 12.1-12.5 16-12.5 16 0 0-1.8-2.4-6.7-1.1z"/><path class="f" d="m108.4 276.9c0 0.4-0.3 0.8-0.7 0.9-0.3 0.2-0.8 0.1-1-0.2-0.3-0.3-0.4-0.7-0.3-1.1 0.2-0.3 0.6-0.6 1-0.6q0.2 0 0.3 0.1 0.2 0.1 0.4 0.2 0.1 0.1 0.2 0.3 0.1 0.2 0.1 0.4z"/><path class="f" d="m101.9 276.9c0 0.4-0.3 0.8-0.6 0.9-0.4 0.2-0.9 0.1-1.1-0.2-0.3-0.3-0.4-0.7-0.3-1.1 0.2-0.3 0.6-0.6 1-0.6q0.2 0 0.4 0.1 0.1 0.1 0.3 0.2 0.1 0.1 0.2 0.3 0.1 0.2 0.1 0.4z"/><path class="l" d="m105.2 225.1c-4.1 7.1-6.7 15.3 3.4 22 0 0 3.3 4.1-5.4 10.2-15.2-19.3-25-21.3-25-21.3 8.8-4.2 12.1-23.3 13-34z"/><path class="m" d="m96.9 211.4l8.3 13.7q-0.4 0.6-0.7 1.3-0.4 0.6-0.7 1.3-0.3 0.6-0.6 1.3-0.3 0.6-0.5 1.3c-4-2.1-8.4-8.9-7.6-13.5q0.1-0.8 0.3-1.4 0.1-0.7 0.4-1.4 0.2-0.7 0.5-1.3 0.2-0.7 0.6-1.3z"/><path class="l" d="m125.7 165.5c14.4 11.1 10.9 36.3 4.1 50.2-7.7 15.5-28.5 14.7-37.9-1.6-6.2-10.9-4.7-17.9-1.9-34.8 2.8-16.9 21.5-24.8 35.7-13.8z"/><path class="g" d="m124.5 156.1c11 6 21.4 25 5.8 20.2-2.3 4.6-10.7 0.4-15.6-5-0.8 3.7-9.8 7.6-16.4 1.7 3.2 4.6-2.2 16.2-7.8 14.2-5.7-2-18.4-4.6-7.1-22.5 11.2-17.9 29.5-15.1 41.1-8.6z"/><path class="o" d="m120.6 195.2c0 0 1 6.7 2.9 10.3-2.2 1.3-5-0.4-5-0.4z"/><path class="g" d="m107.7 206.9q-0.9-0.6-1.7-1.5-0.8-0.8-1.4-1.8-0.6-0.9-1.1-2 0-0.1 0-0.2 0 0 0-0.1 0.1-0.1 0.1-0.2 0.1 0 0.2 0 0-0.1 0.1-0.1 0.1 0 0.2 0.1 0 0 0.1 0.1 0 0.1 0.1 0.1 0.5 1.3 1.3 2.4 0.8 1 1.8 1.9 1 0.9 2.2 1.5 1.1 0.7 2.4 1.1 0.1 0 0.2 0 0 0.1 0.1 0.1 0 0.1 0 0.2 0.1 0.1 0 0.2 0 0 0 0.1-0.1 0.1-0.1 0.1-0.1 0.1-0.2 0.1-0.1 0-0.1 0-0.3-0.1-0.6-0.2-0.3-0.1-0.6-0.2-0.2-0.1-0.5-0.2-0.3-0.1-0.5-0.3-1.1-0.5-2-1.2z"/><path class="l" d="m87.3 182.5c4.5 0.3 7 6.6 7.3 10.9 0.3 4.8-2.7 8.6-6.7 6.3q-1.2-0.6-2.2-1.5-1-0.9-1.8-2-0.9-1.1-1.5-2.3-0.6-1.2-0.9-2.5c-1.2-4.4 1.3-9.1 5.8-8.9z"/><path class="g" d="m108.4 179.7q-0.1 0-0.2-0.1 0-0.1-0.1-0.1 0-0.1-0.1-0.2 0-0.1-0.1-0.3 0-0.1 0.1-0.3 0-0.2 0.1-0.3 0.1-0.1 0.3-0.2 0.8-0.5 1.7-0.7 1-0.2 1.9-0.2 1 0 1.9 0.2 1 0.2 1.8 0.7 0.2 0.1 0.3 0.2 0.1 0.2 0.1 0.3 0.1 0.2 0 0.4 0 0.1 0 0.3-0.1 0.1-0.2 0.2-0.2 0.1-0.3 0.2-0.2 0-0.3 0-0.2 0-0.3-0.1-0.7-0.4-1.5-0.5-0.7-0.2-1.5-0.2-0.7 0-1.5 0.2-0.7 0.2-1.4 0.6 0 0-0.1 0-0.1 0-0.2 0-0.1 0-0.1 0-0.1 0-0.2 0-0.1-0.1-0.1-0.1z"/><path class="g" d="m135.2 186.3q0-0.1-0.1-0.2-0.1 0-0.1-0.1 0-0.1-0.1-0.2-0.2-0.7-0.6-1.5-0.3-0.7-0.9-1.3-0.5-0.6-1.2-1-0.6-0.5-1.3-0.8-0.2-0.1-0.3-0.2-0.2-0.1-0.2-0.2-0.1-0.2-0.1-0.3-0.1-0.2 0-0.4 0-0.1 0.1-0.3 0.1-0.1 0.2-0.2 0.2-0.1 0.3-0.1 0.2 0 0.4 0.1 0.9 0.3 1.7 0.9 0.9 0.6 1.6 1.4 0.6 0.7 1.1 1.6 0.5 0.9 0.8 1.9 0 0.1 0 0.3 0 0.1-0.1 0.3 0 0.1-0.1 0.2-0.2 0.2-0.3 0.2-0.1 0-0.2 0-0.1 0.1-0.1 0-0.1 0-0.2 0-0.1 0-0.1 0-0.1-0.1-0.2-0.1z"/><path class="g" d="m113.9 190.8c-0.5 1.3-1.6 2.1-2.5 1.8-0.9-0.3-1.2-1.7-0.7-3 0.4-1.3 1.6-2.1 2.5-1.8 0.8 0.3 1.2 1.7 0.7 3z"/><path class="g" d="m112.8 187.7h3.3c0 0-2.4 1.9-3.3 0z"/><path class="g" d="m130.7 196.1c-0.5 1.4-1.6 2.2-2.5 1.8-0.9-0.3-1.2-1.6-0.8-3 0.5-1.3 1.7-2.1 2.5-1.8 0.9 0.3 1.3 1.7 0.8 3z"/><path class="g" d="m129.6 193c0.9 1.9 3.3 0 3.3 0l-3.3 0.1z"/><path fill-rule="evenodd" class="g" d="m112.3 200.3q-0.4 0-0.8-0.1-0.4 0-0.7-0.1-0.4-0.1-0.8-0.2-0.3-0.1-0.7-0.3-0.7-0.3-1.4-0.8-0.7-0.5-1.2-1.1-0.5-0.7-0.9-1.4-0.4-0.7-0.6-1.5-0.5-1.7-0.4-3.5 0.1-1.8 0.9-3.4 0.7-1.6 1.9-2.9 1.3-1.3 2.8-2.1c1-0.5 2.1-0.7 3.2-0.8 1.1 0 2.2 0.2 3.2 0.7 1 0.4 1.9 1.1 2.6 1.9 0.8 0.9 1.3 1.9 1.6 2.9q0.2 0.9 0.3 1.8 0.1 0.8 0 1.7 0 0.9-0.2 1.8-0.3 0.8-0.6 1.6-0.4 0.8-0.9 1.6-0.5 0.7-1.1 1.3-0.6 0.7-1.3 1.2-0.7 0.5-1.5 0.9-0.4 0.2-0.8 0.3-0.4 0.2-0.9 0.3-0.4 0.1-0.8 0.1-0.5 0.1-0.9 0zm1.6-16.9q-0.4 0-0.8 0.1-0.3 0-0.7 0.1-0.4 0.1-0.7 0.2-0.4 0.1-0.7 0.3-1.4 0.7-2.5 1.8-1.1 1.2-1.7 2.6-0.7 1.4-0.8 3-0.1 1.6 0.3 3.1c0.3 0.9 0.7 1.7 1.3 2.4 0.6 0.8 1.4 1.3 2.2 1.7 0.9 0.4 1.8 0.6 2.8 0.6 0.9-0.1 1.8-0.3 2.7-0.7q0.7-0.4 1.3-0.8 0.6-0.5 1.2-1 0.5-0.6 1-1.2 0.4-0.7 0.7-1.4 0.3-0.7 0.5-1.5 0.2-0.7 0.3-1.5 0-0.8 0-1.6-0.1-0.7-0.4-1.5-0.1-0.7-0.5-1.3-0.3-0.6-0.8-1.2-0.4-0.5-1-0.9-0.5-0.4-1.2-0.7-0.3-0.2-0.6-0.3-0.3-0.1-0.6-0.2-0.3 0-0.7-0.1-0.3 0-0.6 0z"/><path fill-rule="evenodd" class="g" d="m128.9 205.4q-0.3 0-0.7-0.1-0.4 0-0.8-0.1-0.4-0.1-0.7-0.2-0.4-0.1-0.8-0.3-0.7-0.3-1.4-0.8-0.6-0.5-1.2-1.1-0.5-0.7-0.9-1.4-0.4-0.7-0.6-1.5-0.5-1.7-0.4-3.5 0.2-1.8 0.9-3.4 0.7-1.6 2-2.9 1.2-1.3 2.8-2.1c1-0.5 2.1-0.7 3.2-0.8 1.1 0 2.2 0.2 3.2 0.7 1 0.4 1.9 1.1 2.6 1.9 0.7 0.9 1.2 1.9 1.5 2.9q0.3 0.9 0.4 1.8 0 0.8 0 1.7-0.1 0.9-0.3 1.8-0.2 0.8-0.6 1.6-0.5 1.2-1.3 2.3-0.9 1-1.9 1.8-1.1 0.7-2.4 1.2-1.2 0.4-2.6 0.5zm1.6-17q-0.3 0-0.7 0-0.4 0-0.8 0.1-0.3 0.1-0.7 0.2-0.3 0.1-0.7 0.3-0.7 0.3-1.3 0.8-0.7 0.5-1.2 1-0.5 0.6-1 1.2-0.4 0.7-0.7 1.4-0.3 0.7-0.5 1.5-0.2 0.7-0.3 1.5-0.1 0.8 0 1.6 0.1 0.7 0.3 1.5 0.2 0.7 0.5 1.3 0.4 0.6 0.8 1.1 0.5 0.6 1.1 1 0.5 0.4 1.2 0.7c3.5 1.6 7.8-0.4 9.6-4.5q0.3-0.7 0.5-1.5 0.2-0.7 0.3-1.5 0-0.8 0-1.6-0.1-0.7-0.3-1.5-0.2-0.7-0.6-1.3-0.3-0.6-0.7-1.1-0.5-0.6-1.1-1-0.5-0.4-1.2-0.7-0.3-0.1-0.6-0.2-0.3-0.1-0.6-0.2-0.3-0.1-0.6-0.1-0.3 0-0.7 0z"/><path class="g" d="m121.8 194.9q0 0 0-0.1-0.1 0-0.1-0.1 0 0-0.1 0 0-0.1-0.1-0.1-0.2 0-0.3 0-0.2 0-0.4 0-0.1 0-0.3 0.1-0.1 0-0.3 0.1l-0.5-1q0.3-0.1 0.5-0.2 0.3-0.1 0.6-0.1 0.3-0.1 0.6 0 0.2 0 0.5 0.1 0.2 0 0.3 0.1 0.2 0.1 0.3 0.2 0.2 0.2 0.3 0.3 0.1 0.2 0.1 0.4z"/><path class="g" d="m94.1 185.3l0.4-1.1 13.5 4.2-0.4 1.1z"/><path class="m" d="m91.3 289.5c0 0-26.3 20.1-49.4 19 0.9-13.8 2.5-32 4.8-45.7 2.3-2.6 3.9-4.2 3.9-4.2l14 10.5-3.4 4.2c0 0 21.2-1 28.5 0z"/><path class="l" d="m94 273.3l21.1-4.3 0.7 18.8c0 0-14.3 5-22.5-4.4z"/><path class="l" d="m129.7 273.4l-2.8 14.1-11.1 0.3-0.7-18.8z"/><path class="e" d="m94 273.3l1 14.5-5.2 2.3-2.2-16.8z"/><path class="n" d="m94 273.3l1 14.5-5.2 2.3-2.2-16.8z"/><path class="e" d="m64.6 269l-10.2 6.7 33.1-2.4 2.3 16.8c-14.6 10.4-62.5 23.8-67.5 5.7-4.9-18 17.5-40.2 23.8-47.7q1.4-1.6 3-3 1.6-1.3 3.5-2.4 1.8-1.1 3.8-1.8 2-0.7 4.2-1.1c0 0 11 9.7 4 29.2z"/><path class="k" d="m64.6 269l-10.2 6.7 33.1-2.4 2.3 16.8c-14.6 10.4-62.5 23.8-67.5 5.7-4.9-18 17.5-40.2 23.8-47.7q1.4-1.6 3-3 1.6-1.3 3.5-2.4 1.8-1.1 3.8-1.8 2-0.7 4.2-1.1c0 0 11 9.7 4 29.2z"/><path class="e" d="m156.6 288.8l6-1v16.1l-4.8 0.8z"/><path class="n" d="m156.6 288.8l6-1v16.1l-4.8 0.8z"/><path class="e" d="m144.4 304.1q0 0.2 0 0.3 0 0.2 0 0.4 0.1 0.1 0.1 0.3 0 0.2 0.1 0.3 0 0.2 0 0.4 0.1 0.1 0.2 0.3 0 0.1 0.1 0.3-0.1-0.1-0.2-0.3-0.2-0.1-0.3-0.2-0.1-0.2-0.2-0.3-0.1-0.2-0.2-0.4 0-0.1-0.1-0.3-0.1-0.1-0.1-0.3-0.1-0.2-0.2-0.4 0-0.1-0.1-0.3 0-0.2 0-0.3-0.1-0.2-0.1-0.4 0-0.2-0.1-0.3 0-0.2 0-0.4c0 0 0-0.2 0-0.1q-0.1 0.1-0.2 0.1-0.2 0.1-0.3 0.1-0.1 0.1-0.2 0.1-0.1 0.1-0.2 0.1-0.5 0.3-1.2 0.4-0.6 0-1.2-0.1-0.6-0.1-1.1-0.4-0.5-0.3-0.9-0.8v0.1q-0.2 0.4-0.4 0.7-0.2 0.3-0.4 0.5-0.2 0.3-0.5 0.5-0.3 0.3-0.6 0.4-0.3 0.2-0.7 0.3-0.4 0.1-0.7 0.1-0.4 0-0.8-0.1-0.3 0-0.7-0.2-0.1 0-0.2-0.1-0.1 0-0.2-0.1-0.1 0-0.2-0.1-0.2-0.1-0.3-0.1 0 0.1 0.1 0.2 0 0.2 0 0.3 0 0.1 0 0.3-0.1 0.1-0.1 0.2 0 0.2 0 0.4 0 0.1 0 0.3 0 0.2-0.1 0.3 0 0.2 0 0.3-0.1 0.2-0.1 0.4-0.1 0.1-0.2 0.3-0.1 0.1-0.2 0.2-0.1 0.2-0.2 0.3 0.1-0.2 0.1-0.3 0.1-0.1 0.1-0.3 0-0.1 0-0.3 0.1-0.2 0-0.3 0-0.2 0-0.3 0-0.2 0-0.3 0-0.2-0.1-0.3 0-0.2 0-0.3-0.1-0.3-0.2-0.6 0-0.3-0.1-0.6-0.1-0.3-0.2-0.6-0.1-0.2-0.2-0.5l-0.7-1.8 1.7 1.1q0.2 0.1 0.4 0.2 0.2 0.2 0.5 0.2 0.2 0.1 0.4 0.2 0.2 0.1 0.5 0.2 0.2 0 0.4 0 0.2 0.1 0.3 0.1 0.2-0.1 0.4-0.1 0.2-0.1 0.4-0.2 0.1-0.1 0.3-0.2 0.1-0.2 0.2-0.3 0.2-0.2 0.3-0.4 0-0.1 0.1-0.3c0.1-0.3 0.2-0.6 0.3-1q0.1-0.5 0.2-1l0.8-3.3 1.1 3.2q0.1 0.1 0.2 0.3 0.1 0.2 0.2 0.4 0.1 0.1 0.2 0.3 0.1 0.2 0.2 0.3 0.1 0.1 0.3 0.3 0.1 0.1 0.2 0.2 0.2 0.1 0.3 0.2 0.2 0.1 0.3 0.1 0.2 0.1 0.4 0.1 0.2 0 0.3 0 0.2 0 0.4 0 0.2 0 0.3-0.1 0.1 0 0.2 0 0.1-0.1 0.2-0.1 0.1 0 0.2-0.1 0.1 0 0.2-0.1l0.8-0.4 1.3-0.8-0.2 1.3q0 0.4-0.1 0.7 0 0.3 0 0.7 0 0.3 0 0.6 0 0.4 0 0.7 0 0.2 0 0.3z"/><path class="e" d="m181.5 281.2l-0.7 1.1q-0.2 0.3-0.4 0.7-0.2 0.3-0.3 0.7-0.2 0.4-0.4 0.8-0.2 0.4-0.3 0.8-0.1 0.2-0.1 0.4-0.1 0.2-0.1 0.4-0.1 0.2-0.1 0.4-0.1 0.2-0.1 0.4 0 0.2 0 0.4 0 0.2 0 0.5 0 0.2 0 0.4 0.1 0.2 0.1 0.4-0.1-0.2-0.2-0.4-0.1-0.2-0.1-0.4-0.1-0.2-0.1-0.5-0.1-0.2-0.1-0.4 0-0.2 0-0.5 0-0.2 0-0.4 0-0.2 0-0.5 0.1-0.2 0.1-0.4 0-0.2 0.1-0.5 0-0.2 0.1-0.4 0-0.2 0.1-0.4 0-0.3 0.1-0.5 0.1-0.3 0.2-0.6-0.2 0-0.4 0-0.3 0-0.5 0-0.3 0-0.5-0.1-0.2 0-0.5 0-0.3-0.1-0.7-0.2-0.4-0.1-0.7-0.2-0.4-0.2-0.7-0.4-0.3-0.1-0.6-0.3-0.4-0.2-0.7-0.5-0.3-0.2-0.5-0.5-0.3-0.2-0.6-0.5-0.2-0.3-0.4-0.6-0.1-0.1-0.2-0.2-0.1-0.2-0.2-0.3-0.1-0.1-0.1-0.2-0.1-0.2-0.2-0.3-0.1 0.1-0.2 0.3-0.2 0.1-0.3 0.3-0.1 0.1-0.3 0.2-0.1 0.2-0.3 0.3-0.3 0.3-0.7 0.5-0.4 0.3-0.8 0.4-0.4 0.2-0.9 0.3-0.4 0.1-0.9 0.1-0.2 0-0.5 0-0.2-0.1-0.4-0.1-0.2-0.1-0.4-0.1-0.2-0.1-0.4-0.2-0.2-0.1-0.4-0.1-0.2-0.1-0.4-0.2-0.2-0.1-0.4-0.2-0.1-0.1-0.3-0.2-0.1-0.1-0.3-0.2-0.1-0.1-0.2-0.2-0.2-0.1-0.3-0.2-0.1-0.1-0.2-0.2 0 0.3 0 0.5-0.1 0.3-0.1 0.5 0 0.3-0.1 0.5 0 0.3 0 0.5-0.1 0.3-0.1 0.6-0.1 0.2-0.2 0.5-0.1 0.2-0.2 0.5-0.1 0.2-0.3 0.4-0.2 0.3-0.4 0.5 0 0-0.1 0.1-0.1 0-0.1 0-0.1 0.1-0.2 0.1 0 0.1-0.1 0.1-0.1 0-0.2 0 0 0.1-0.1 0.1-0.1 0-0.2 0 0 0-0.1 0h-0.2q0.2 1 0.3 2-0.4-1.1-0.9-2.2l-0.1-0.4h0.4q0.2 0 0.4 0 0.2-0.1 0.4-0.2 0.1-0.1 0.3-0.2 0.1-0.1 0.2-0.3 0-0.2 0.1-0.4 0.1-0.2 0.1-0.5 0.1-0.2 0.1-0.4 0-0.2 0-0.4 0-0.5 0-0.9 0-0.5 0-1 0-0.4-0.1-0.9 0-0.5-0.1-0.9l-0.4-2.3 1.8 1.7q0.2 0.2 0.5 0.4 0.2 0.2 0.5 0.4 0.3 0.2 0.5 0.4 0.3 0.2 0.6 0.4 0.2 0 0.3 0.1 0.2 0.1 0.3 0.1 0.2 0.1 0.3 0.2 0.2 0 0.3 0.1c0.2 0 0.4 0.1 0.6 0.1l0.3 0.1h0.3q0.3 0 0.5-0.1 0.3-0.1 0.6-0.2 0.2-0.1 0.4-0.3 0.3-0.1 0.5-0.3 0.2-0.2 0.5-0.5 0.2-0.2 0.4-0.5 0.2-0.2 0.4-0.5 0.2-0.3 0.4-0.5l1.1-1.8 0.7 2q0.1 0.3 0.2 0.6 0.1 0.2 0.2 0.5 0.2 0.3 0.3 0.5 0.2 0.3 0.3 0.6 0.2 0.2 0.4 0.4 0.2 0.3 0.4 0.5 0.2 0.2 0.4 0.4 0.2 0.2 0.5 0.4 0.2 0.1 0.5 0.3 0.2 0.1 0.5 0.3 0.3 0.1 0.6 0.2 0.2 0.1 0.5 0.2 0.3 0.1 0.6 0.1 0.3 0.1 0.6 0.1 0.3 0.1 0.6 0.1 0.2 0 0.5-0.1z"/><path class="e" d="m380.2 340.3h-350.7q-0.9 0-1.7-0.3-0.8-0.3-1.4-1-0.7-0.6-1-1.4-0.3-0.8-0.3-1.7v-10.8h359.5v10.8q0 0.9-0.3 1.7-0.3 0.8-1 1.4-0.6 0.7-1.4 1-0.8 0.3-1.7 0.3z"/><path class="m" d="m384.6 332.7h-359.6v-7.6h359.6z"/><path class="e" d="m15.9 326.7q-0.8-0.3-1.4-0.9-0.6-0.6-0.9-1.4-0.4-0.8-0.4-1.6 0-0.9 0.3-1.7 0.4-0.8 1-1.4 0.6-0.6 1.4-0.9 0.8-0.3 1.6-0.3h374.7q0.8 0 1.6 0.3 0.8 0.3 1.4 0.9 0.6 0.6 1 1.4 0.3 0.8 0.3 1.7 0 0.8-0.4 1.6-0.3 0.8-0.9 1.4-0.6 0.6-1.4 0.9-0.8 0.4-1.6 0.4h-374.7q-0.8 0-1.6-0.4z"/><path class="g" d="m366.8 266l-10.9 49.6q-0.2 0.6-0.5 1.1-0.4 0.5-0.8 0.9-0.5 0.4-1.1 0.6-0.6 0.2-1.2 0.2h-59.8q-0.5 0-1-0.2-0.5-0.3-0.9-0.8-0.3-0.4-0.4-1-0.1-0.5 0.1-1.1l10.9-49.2q0.2-0.6 0.5-1.1 0.4-0.4 0.9-0.8 0.4-0.3 1-0.4 0.6-0.2 1.2-0.2h59.7c1.6 0.1 2.6 0.8 2.3 2.4z"/><path class="j" d="m366.8 266l-10.9 49.6q-0.2 0.6-0.5 1.1-0.4 0.5-0.8 0.9-0.5 0.4-1.1 0.6-0.6 0.2-1.2 0.2h-57.7q-0.6 0-1.1-0.2-0.5-0.3-0.8-0.8-0.4-0.4-0.5-1 0-0.5 0.1-1.1l11-49.2q0.1-0.6 0.5-1.1 0.3-0.4 0.8-0.8 0.5-0.3 1.1-0.5 0.5-0.1 1.1-0.1h57.7c1.6 0.1 2.6 0.8 2.3 2.4z"/><path class="e" d="m293.6 317.6l11-50q0.2-0.5 0.5-1 0.4-0.5 0.9-0.8 0.4-0.3 1-0.5 0.6-0.1 1.2-0.1h57.7c1.6 0 2.6 0.7 2.2 2.3l-10.8 49.4z"/><path class="j" d="m368.1 267.5l-5.7 26.1-5.2 23.3-34.1 0.4-29.5 0.3 11-50q0.1-0.5 0.5-1 0.3-0.5 0.8-0.8 0.5-0.3 1.1-0.5 0.5-0.1 1.1-0.1h57.8c1.6 0 2.6 0.7 2.2 2.3z"/><path class="m" d="m362.4 293.6l-5.1 23.3-34.1 0.4h-28.4l4.7-21.3q0.1-0.5 0.3-1 0.3-0.4 0.7-0.7 0.4-0.3 0.9-0.5 0.5-0.2 1-0.2z"/><path class="e" d="m367.6 315.9q0.1 0.5 0 0.9-0.1 0.5-0.4 0.9-0.3 0.4-0.7 0.6-0.4 0.2-0.9 0.2h-71.1q-0.4 0-0.7-0.3-0.2-0.3-0.2-0.6 0-0.4 0.2-0.7 0.3-0.3 0.7-0.3h9.7l-4.4-19.8c-0.3-1.6 0.7-2.4 2.3-2.4h57.7q0.6 0 1.2 0.1 0.6 0.2 1 0.5 0.5 0.3 0.9 0.8 0.3 0.5 0.5 1.1z"/><path class="j" d="m367.6 315.9q0.1 0.5 0 0.9-0.1 0.5-0.4 0.9-0.3 0.4-0.7 0.6-0.4 0.2-0.9 0.2h-71.1q-0.4 0-0.7-0.3-0.2-0.3-0.2-0.6 0-0.4 0.2-0.7 0.3-0.3 0.7-0.3h9.7l-4.4-19.8c-0.3-1.6 0.7-2.4 2.3-2.4h57.7q0.6 0 1.2 0.1 0.6 0.2 1 0.5 0.5 0.3 0.9 0.8 0.3 0.5 0.5 1.1z"/><path  d="m292.8 308.9l-0.6 1.8h-3.2l0.4-1.8h3.3z"/><path  d="m271.6 318.7h-9.7q-0.1 0-0.2 0-0.1-0.1-0.2-0.2-0.1 0-0.1-0.1 0-0.1 0-0.3 0-0.1 0-0.2 0-0.1 0.1-0.2 0.1 0 0.2-0.1 0.1 0 0.2 0h9.7q1.2 0 2.3-0.3 1.2-0.3 2.3-0.8 1-0.5 2-1.2 0.9-0.8 1.6-1.7 0.9-1 1.9-1.8 1-0.8 2.2-1.4 1.2-0.6 2.5-0.9 1.3-0.3 2.6-0.3h1.7q0.1 0 0.2 0.1 0.1 0 0.2 0.1 0.1 0.1 0.1 0.2 0 0.1 0 0.2 0 0.1 0 0.2 0 0.1-0.1 0.2-0.1 0.1-0.2 0.1-0.1 0.1-0.2 0.1h-1.7q-1.2 0-2.3 0.2-1.2 0.3-2.3 0.8-1 0.5-2 1.3-0.9 0.7-1.7 1.6-0.8 1.1-1.8 1.9-1 0.8-2.2 1.4-1.2 0.5-2.5 0.8-1.3 0.3-2.6 0.3z"/><path class="g" d="m233.6 335.6v4.2c0 1.9-2.2 2.7-4.1 2.7h-146.6c-1.9 0-4.1-0.8-4.1-2.7v-4.2z"/><path class="j" d="m233.6 335.6v4.2c0 1.9-2.2 2.7-4.1 2.7h-146.6c-1.9 0-4.1-0.8-4.1-2.7v-4.2z"/><path class="m" d="m233.6 335.6v4.2c0 1.9-2.2 2.7-4.1 2.7h-96.7c-1.9 0-4.1-0.8-4.1-2.7v-4.2z"/><path class="g" d="m258.1 256.3l-17.4 79.2q-0.3 0.9-0.8 1.8-0.5 0.8-1.3 1.4-0.8 0.6-1.7 0.9-0.9 0.4-1.9 0.4h-95.3c-2.6 0-4.2-2.4-3.6-5l17.4-78.6c0.6-2.5 3.1-3.8 5.7-3.8h95.3c2.6 0 4.2 1.1 3.6 3.7z"/><path class="j" d="m258.1 256.3l-17.4 79.2q-0.3 0.9-0.8 1.8-0.5 0.8-1.3 1.4-0.8 0.6-1.7 0.9-0.9 0.4-1.9 0.4h-92.1c-2.6 0-4.2-2.4-3.6-5l17.5-78.6c0.5-2.5 3.1-3.8 5.6-3.8h92.1c2.6 0 4.2 1.1 3.6 3.7z"/><path class="m" d="m211.1 296.6c0 6.7-7.3 12.3-12.6 12.3-5.3-0.1-8.5-5.6-7-12.3 1.5-6.8 6.8-12.1 12-12.3-1.5 6.8 1.8 12.3 7 12.3q0.1 0 0.2 0 0 0 0.1 0 0.1 0 0.2 0 0 0 0.1 0z"/></svg>